<?xml version="1.0"?>
<!-- Generated by SVGo -->
<svg width="242.601mm" height="90.201mm"
     viewBox="0.000 0.000 242.601 90.201"
     xmlns="http://www.w3.org/2000/svg" 
     xmlns:xlink="http://www.w3.org/1999/xlink">
<polygon points="235.601,5.000 235.757,5.006 235.913,5.024 236.067,5.055 236.219,5.097 236.366,5.152 236.508,5.217 236.645,5.294 236.776,5.381 236.899,5.479 237.015,5.585 237.121,5.701 237.219,5.824 237.306,5.955 237.383,6.092 237.448,6.234 237.503,6.381 237.545,6.533 237.576,6.687 237.594,6.843 237.601,7.000 237.601,83.201 237.594,83.357 237.576,83.513 237.545,83.667 237.503,83.819 237.448,83.966 237.383,84.108 237.306,84.245 237.219,84.376 237.121,84.499 237.015,84.615 236.899,84.721 236.776,84.819 236.645,84.906 236.508,84.983 236.366,85.048 236.219,85.103 236.067,85.145 235.913,85.176 235.757,85.194 235.601,85.200 7.000,85.201 6.843,85.194 6.687,85.176 6.533,85.145 6.381,85.103 6.234,85.048 6.092,84.983 5.955,84.906 5.824,84.819 5.701,84.721 5.585,84.615 5.479,84.499 5.381,84.376 5.294,84.245 5.217,84.108 5.152,83.966 5.097,83.819 5.055,83.667 5.024,83.513 5.006,83.357 4.999,83.201 5.000,7.000 5.006,6.843 5.024,6.687 5.055,6.533 5.097,6.381 5.152,6.234 5.217,6.092 5.294,5.955 5.381,5.824 5.479,5.701 5.585,5.585 5.701,5.479 5.824,5.381 5.955,5.294 6.092,5.217 6.234,5.152 6.381,5.097 6.533,5.055 6.687,5.024 6.843,5.006 7.000,4.999" style="fill:none;stroke-width:0.2;stroke:black"/>
<polygon points="107.156,66.675 107.156,71.375 105.581,71.375 105.581,68.145 103.906,68.145 103.906,67.225 100.606,67.225 100.606,68.145 98.931,68.145 98.931,71.375 98.056,71.375 98.056,74.175 98.931,74.175 98.931,80.445 100.606,80.445 100.606,81.425 103.906,81.425 103.906,80.445 105.581,80.445 105.581,75.975 107.156,75.975 107.156,80.675 121.156,80.675 121.156,75.975 122.731,75.975 122.731,80.445 124.406,80.445 124.406,81.425 127.706,81.425 127.706,80.445 129.381,80.445 129.381,74.175 130.256,74.175 130.256,71.375 129.381,71.375 129.381,68.145 127.706,68.145 127.706,67.225 124.406,67.225 124.406,68.145 122.731,68.145 122.731,71.375 121.156,71.375 121.156,66.675" style="fill:none;stroke-width:0.2;stroke:black"/>
<polygon points="14.287,66.675 14.287,80.675 28.287,80.675 28.287,66.675" style="fill:none;stroke-width:0.2;stroke:black"/>
<polygon points="42.862,66.675 42.862,80.675 56.862,80.675 56.862,66.675" style="fill:none;stroke-width:0.2;stroke:black"/>
<polygon points="69.056,66.675 69.056,80.675 83.056,80.675 83.056,66.675" style="fill:none;stroke-width:0.2;stroke:black"/>
<polygon points="142.875,66.675 142.875,80.675 156.875,80.675 156.875,66.675" style="fill:none;stroke-width:0.2;stroke:black"/>
<polygon points="161.925,66.675 161.925,80.675 175.925,80.675 175.925,66.675" style="fill:none;stroke-width:0.2;stroke:black"/>
<polygon points="180.975,66.675 180.975,80.675 194.975,80.675 194.975,66.675" style="fill:none;stroke-width:0.2;stroke:black"/>
<polygon points="200.025,66.675 200.025,80.675 214.025,80.675 214.025,66.675" style="fill:none;stroke-width:0.2;stroke:black"/>
<polygon points="219.075,66.675 219.075,80.675 233.075,80.675 233.075,66.675" style="fill:none;stroke-width:0.2;stroke:black"/>
<polygon points="9.524,47.625 9.524,61.625 23.525,61.625 23.525,47.625" style="fill:none;stroke-width:0.2;stroke:black"/>
<polygon points="28.575,47.625 28.575,61.625 42.575,61.625 42.575,47.625" style="fill:none;stroke-width:0.2;stroke:black"/>
<polygon points="47.625,47.625 47.625,61.625 61.625,61.625 61.625,47.625" style="fill:none;stroke-width:0.2;stroke:black"/>
<polygon points="66.675,47.625 66.675,61.625 80.675,61.625 80.675,47.625" style="fill:none;stroke-width:0.2;stroke:black"/>
<polygon points="85.725,47.625 85.725,61.625 99.725,61.625 99.725,47.625" style="fill:none;stroke-width:0.2;stroke:black"/>
<polygon points="104.774,47.625 104.774,61.625 118.774,61.625 118.774,47.625" style="fill:none;stroke-width:0.2;stroke:black"/>
<polygon points="123.824,47.625 123.824,61.625 137.825,61.625 137.825,47.625" style="fill:none;stroke-width:0.2;stroke:black"/>
<polygon points="142.875,47.625 142.875,61.625 156.875,61.625 156.875,47.625" style="fill:none;stroke-width:0.2;stroke:black"/>
<polygon points="161.925,47.625 161.925,61.625 175.925,61.625 175.925,47.625" style="fill:none;stroke-width:0.2;stroke:black"/>
<polygon points="180.975,47.625 180.975,61.625 194.975,61.625 194.975,47.625" style="fill:none;stroke-width:0.2;stroke:black"/>
<polygon points="200.025,47.625 200.025,61.625 214.025,61.625 214.025,47.625" style="fill:none;stroke-width:0.2;stroke:black"/>
<polygon points="219.075,47.625 219.075,61.625 233.075,61.625 233.075,47.625" style="fill:none;stroke-width:0.2;stroke:black"/>
<polygon points="14.287,28.575 14.287,42.575 28.287,42.575 28.287,28.575" style="fill:none;stroke-width:0.2;stroke:black"/>
<polygon points="38.100,28.575 38.100,42.575 52.100,42.575 52.100,28.575" style="fill:none;stroke-width:0.2;stroke:black"/>
<polygon points="57.150,28.575 57.150,42.575 71.150,42.575 71.150,28.575" style="fill:none;stroke-width:0.2;stroke:black"/>
<polygon points="76.200,28.575 76.200,42.575 90.200,42.575 90.200,28.575" style="fill:none;stroke-width:0.2;stroke:black"/>
<polygon points="95.250,28.575 95.250,42.575 109.250,42.575 109.250,28.575" style="fill:none;stroke-width:0.2;stroke:black"/>
<polygon points="114.300,28.575 114.300,42.575 128.300,42.575 128.300,28.575" style="fill:none;stroke-width:0.2;stroke:black"/>
<polygon points="133.350,28.575 133.350,42.575 147.350,42.575 147.350,28.575" style="fill:none;stroke-width:0.2;stroke:black"/>
<polygon points="152.400,28.575 152.400,42.575 166.400,42.575 166.400,28.575" style="fill:none;stroke-width:0.2;stroke:black"/>
<polygon points="171.450,28.575 171.450,42.575 185.450,42.575 185.450,28.575" style="fill:none;stroke-width:0.2;stroke:black"/>
<polygon points="190.500,28.575 190.500,42.575 204.500,42.575 204.500,28.575" style="fill:none;stroke-width:0.2;stroke:black"/>
<polygon points="214.312,28.575 214.312,42.575 228.312,42.575 228.312,28.575" style="fill:none;stroke-width:0.2;stroke:black"/>
<polygon points="9.524,9.524 9.524,23.525 23.525,23.525 23.525,9.524" style="fill:none;stroke-width:0.2;stroke:black"/>
<polygon points="28.575,9.524 28.575,23.525 42.575,23.525 42.575,9.524" style="fill:none;stroke-width:0.2;stroke:black"/>
<polygon points="47.625,9.524 47.625,23.525 61.625,23.525 61.625,9.524" style="fill:none;stroke-width:0.2;stroke:black"/>
<polygon points="66.675,9.524 66.675,23.525 80.675,23.525 80.675,9.524" style="fill:none;stroke-width:0.2;stroke:black"/>
<polygon points="85.725,9.524 85.725,23.525 99.725,23.525 99.725,9.524" style="fill:none;stroke-width:0.2;stroke:black"/>
<polygon points="104.774,9.524 104.774,23.525 118.774,23.525 118.774,9.524" style="fill:none;stroke-width:0.2;stroke:black"/>
<polygon points="123.824,9.524 123.824,23.525 137.825,23.525 137.825,9.524" style="fill:none;stroke-width:0.2;stroke:black"/>
<polygon points="142.875,9.524 142.875,23.525 156.875,23.525 156.875,9.524" style="fill:none;stroke-width:0.2;stroke:black"/>
<polygon points="161.925,9.524 161.925,23.525 175.925,23.525 175.925,9.524" style="fill:none;stroke-width:0.2;stroke:black"/>
<polygon points="180.975,9.524 180.975,23.525 194.975,23.525 194.975,9.524" style="fill:none;stroke-width:0.2;stroke:black"/>
<polygon points="200.025,9.524 200.025,23.525 214.025,23.525 214.025,9.524" style="fill:none;stroke-width:0.2;stroke:black"/>
<polygon points="219.075,9.524 219.075,23.525 233.075,23.525 233.075,9.524" style="fill:none;stroke-width:0.2;stroke:black"/>
</svg>
