  0
SECTION
  2
HEADER
  9
$ACADVER
  1
AC1009
  9
$EXTMIN
 10
0.0
 20
0.0
 30
0.0
  9
$EXTMAX
 10
1000.0
 20
1000.0
 30
0.0
  9
$FILLMODE
 70
 0
  9
$SPLFRAME
 70
 1
  0
ENDSEC
  0
SECTION
  2
TABLES
  0
TABLE
  2
LAYER
 70
1
  0
LAYER
  2
0
 70
     0
 62
     7
  6
CONTINUOUS
  0
ENDTAB
  0
ENDSEC
  0
SECTION
  2
ENTITIES
  0
LINE
  8
0
 62
     0
 10
0.0937066
 20
76.3129
 30
0.0
 11
228.694
 21
76.3129
 31
0.0
  0
LINE
  8
0
 62
     0
 10
228.694
 20
76.3129
 30
0.0
 11
228.694
 21
0.112999
 31
0.0
  0
LINE
  8
0
 62
     0
 10
228.694
 20
0.112999
 30
0.0
 11
0.0937066
 21
0.112999
 31
0.0
  0
LINE
  8
0
 62
     0
 10
0.0937066
 20
0.112999
 30
0.0
 11
0.0937066
 21
76.3129
 31
0.0
  0
LINE
  8
0
 62
     0
 10
16.6192
 20
60.7882
 30
0.0
 11
16.6192
 21
59.7877
 31
0.0
  0
LINE
  8
0
 62
     0
 10
16.6192
 20
59.7877
 30
0.0
 11
2.61827
 21
59.7877
 31
0.0
  0
LINE
  8
0
 62
     0
 10
2.61827
 20
59.7877
 30
0.0
 11
2.61827
 21
60.7882
 31
0.0
  0
LINE
  8
0
 62
     0
 10
2.61827
 20
60.7882
 30
0.0
 11
1.81901
 21
60.7882
 31
0.0
  0
LINE
  8
0
 62
     0
 10
1.81901
 20
60.7882
 30
0.0
 11
1.81901
 21
63.8888
 31
0.0
  0
LINE
  8
0
 62
     0
 10
1.81901
 20
63.8888
 30
0.0
 11
2.61827
 21
63.8888
 31
0.0
  0
LINE
  8
0
 62
     0
 10
2.61827
 20
63.8888
 30
0.0
 11
2.61827
 21
69.6874
 31
0.0
  0
LINE
  8
0
 62
     0
 10
2.61827
 20
69.6874
 30
0.0
 11
1.81901
 21
69.6874
 31
0.0
  0
LINE
  8
0
 62
     0
 10
1.81901
 20
69.6874
 30
0.0
 11
1.81901
 21
72.7879
 31
0.0
  0
LINE
  8
0
 62
     0
 10
1.81901
 20
72.7879
 30
0.0
 11
2.61827
 21
72.7879
 31
0.0
  0
LINE
  8
0
 62
     0
 10
2.61827
 20
72.7879
 30
0.0
 11
2.61827
 21
73.7884
 31
0.0
  0
LINE
  8
0
 62
     0
 10
2.61827
 20
73.7884
 30
0.0
 11
16.6192
 21
73.7884
 31
0.0
  0
LINE
  8
0
 62
     0
 10
16.6192
 20
73.7884
 30
0.0
 11
16.6192
 21
72.7879
 31
0.0
  0
LINE
  8
0
 62
     0
 10
16.6192
 20
72.7879
 30
0.0
 11
17.4184
 21
72.7879
 31
0.0
  0
LINE
  8
0
 62
     0
 10
17.4184
 20
72.7879
 30
0.0
 11
17.4184
 21
69.6874
 31
0.0
  0
LINE
  8
0
 62
     0
 10
17.4184
 20
69.6874
 30
0.0
 11
16.6192
 21
69.6874
 31
0.0
  0
LINE
  8
0
 62
     0
 10
16.6192
 20
69.6874
 30
0.0
 11
16.6192
 21
63.8888
 31
0.0
  0
LINE
  8
0
 62
     0
 10
16.6192
 20
63.8888
 30
0.0
 11
17.4184
 21
63.8888
 31
0.0
  0
LINE
  8
0
 62
     0
 10
17.4184
 20
63.8888
 30
0.0
 11
17.4184
 21
60.7882
 31
0.0
  0
LINE
  8
0
 62
     0
 10
17.4184
 20
60.7882
 30
0.0
 11
16.6192
 21
60.7882
 31
0.0
  0
LINE
  8
0
 62
     0
 10
16.6192
 20
22.688
 30
0.0
 11
16.6192
 21
21.6876
 31
0.0
  0
LINE
  8
0
 62
     0
 10
16.6192
 20
21.6876
 30
0.0
 11
2.61827
 21
21.6876
 31
0.0
  0
LINE
  8
0
 62
     0
 10
2.61827
 20
21.6876
 30
0.0
 11
2.61827
 21
22.688
 31
0.0
  0
LINE
  8
0
 62
     0
 10
2.61827
 20
22.688
 30
0.0
 11
1.81901
 21
22.688
 31
0.0
  0
LINE
  8
0
 62
     0
 10
1.81901
 20
22.688
 30
0.0
 11
1.81901
 21
25.7886
 31
0.0
  0
LINE
  8
0
 62
     0
 10
1.81901
 20
25.7886
 30
0.0
 11
2.61827
 21
25.7886
 31
0.0
  0
LINE
  8
0
 62
     0
 10
2.61827
 20
25.7886
 30
0.0
 11
2.61827
 21
31.5874
 31
0.0
  0
LINE
  8
0
 62
     0
 10
2.61827
 20
31.5874
 30
0.0
 11
1.81901
 21
31.5874
 31
0.0
  0
LINE
  8
0
 62
     0
 10
1.81901
 20
31.5874
 30
0.0
 11
1.81901
 21
34.688
 31
0.0
  0
LINE
  8
0
 62
     0
 10
1.81901
 20
34.688
 30
0.0
 11
2.61827
 21
34.688
 31
0.0
  0
LINE
  8
0
 62
     0
 10
2.61827
 20
34.688
 30
0.0
 11
2.61827
 21
35.6884
 31
0.0
  0
LINE
  8
0
 62
     0
 10
2.61827
 20
35.6884
 30
0.0
 11
16.6192
 21
35.6884
 31
0.0
  0
LINE
  8
0
 62
     0
 10
16.6192
 20
35.6884
 30
0.0
 11
16.6192
 21
34.688
 31
0.0
  0
LINE
  8
0
 62
     0
 10
16.6192
 20
34.688
 30
0.0
 11
17.4184
 21
34.688
 31
0.0
  0
LINE
  8
0
 62
     0
 10
17.4184
 20
34.688
 30
0.0
 11
17.4184
 21
31.5874
 31
0.0
  0
LINE
  8
0
 62
     0
 10
17.4184
 20
31.5874
 30
0.0
 11
16.6192
 21
31.5874
 31
0.0
  0
LINE
  8
0
 62
     0
 10
16.6192
 20
31.5874
 30
0.0
 11
16.6192
 21
25.7886
 31
0.0
  0
LINE
  8
0
 62
     0
 10
16.6192
 20
25.7886
 30
0.0
 11
17.4184
 21
25.7886
 31
0.0
  0
LINE
  8
0
 62
     0
 10
17.4184
 20
25.7886
 30
0.0
 11
17.4184
 21
22.688
 31
0.0
  0
LINE
  8
0
 62
     0
 10
17.4184
 20
22.688
 30
0.0
 11
16.6192
 21
22.688
 31
0.0
  0
LINE
  8
0
 62
     0
 10
21.3817
 20
41.7382
 30
0.0
 11
21.3817
 21
40.7377
 31
0.0
  0
LINE
  8
0
 62
     0
 10
21.3817
 20
40.7377
 30
0.0
 11
7.38216
 21
40.7377
 31
0.0
  0
LINE
  8
0
 62
     0
 10
7.38216
 20
40.7377
 30
0.0
 11
7.38216
 21
41.7382
 31
0.0
  0
LINE
  8
0
 62
     0
 10
7.38216
 20
41.7382
 30
0.0
 11
6.58153
 21
41.7382
 31
0.0
  0
LINE
  8
0
 62
     0
 10
6.58153
 20
41.7382
 30
0.0
 11
6.58153
 21
44.8388
 31
0.0
  0
LINE
  8
0
 62
     0
 10
6.58153
 20
44.8388
 30
0.0
 11
7.38216
 21
44.8388
 31
0.0
  0
LINE
  8
0
 62
     0
 10
7.38216
 20
44.8388
 30
0.0
 11
7.38216
 21
50.6374
 31
0.0
  0
LINE
  8
0
 62
     0
 10
7.38216
 20
50.6374
 30
0.0
 11
6.58153
 21
50.6374
 31
0.0
  0
LINE
  8
0
 62
     0
 10
6.58153
 20
50.6374
 30
0.0
 11
6.58153
 21
53.7379
 31
0.0
  0
LINE
  8
0
 62
     0
 10
6.58153
 20
53.7379
 30
0.0
 11
7.38216
 21
53.7379
 31
0.0
  0
LINE
  8
0
 62
     0
 10
7.38216
 20
53.7379
 30
0.0
 11
7.38216
 21
54.7384
 31
0.0
  0
LINE
  8
0
 62
     0
 10
7.38216
 20
54.7384
 30
0.0
 11
21.3817
 21
54.7384
 31
0.0
  0
LINE
  8
0
 62
     0
 10
21.3817
 20
54.7384
 30
0.0
 11
21.3817
 21
53.7379
 31
0.0
  0
LINE
  8
0
 62
     0
 10
21.3817
 20
53.7379
 30
0.0
 11
22.1823
 21
53.7379
 31
0.0
  0
LINE
  8
0
 62
     0
 10
22.1823
 20
53.7379
 30
0.0
 11
22.1823
 21
50.6374
 31
0.0
  0
LINE
  8
0
 62
     0
 10
22.1823
 20
50.6374
 30
0.0
 11
21.3817
 21
50.6374
 31
0.0
  0
LINE
  8
0
 62
     0
 10
21.3817
 20
50.6374
 30
0.0
 11
21.3817
 21
44.8388
 31
0.0
  0
LINE
  8
0
 62
     0
 10
21.3817
 20
44.8388
 30
0.0
 11
22.1823
 21
44.8388
 31
0.0
  0
LINE
  8
0
 62
     0
 10
22.1823
 20
44.8388
 30
0.0
 11
22.1823
 21
41.7382
 31
0.0
  0
LINE
  8
0
 62
     0
 10
22.1823
 20
41.7382
 30
0.0
 11
21.3817
 21
41.7382
 31
0.0
  0
LINE
  8
0
 62
     0
 10
21.3817
 20
3.63802
 30
0.0
 11
21.3817
 21
2.63756
 31
0.0
  0
LINE
  8
0
 62
     0
 10
21.3817
 20
2.63756
 30
0.0
 11
7.38216
 21
2.63756
 31
0.0
  0
LINE
  8
0
 62
     0
 10
7.38216
 20
2.63756
 30
0.0
 11
7.38216
 21
3.63802
 31
0.0
  0
LINE
  8
0
 62
     0
 10
7.38216
 20
3.63802
 30
0.0
 11
6.58153
 21
3.63802
 31
0.0
  0
LINE
  8
0
 62
     0
 10
6.58153
 20
3.63802
 30
0.0
 11
6.58153
 21
6.73862
 31
0.0
  0
LINE
  8
0
 62
     0
 10
6.58153
 20
6.73862
 30
0.0
 11
7.38216
 21
6.73862
 31
0.0
  0
LINE
  8
0
 62
     0
 10
7.38216
 20
6.73862
 30
0.0
 11
7.38216
 21
12.5374
 31
0.0
  0
LINE
  8
0
 62
     0
 10
7.38216
 20
12.5374
 30
0.0
 11
6.58153
 21
12.5374
 31
0.0
  0
LINE
  8
0
 62
     0
 10
6.58153
 20
12.5374
 30
0.0
 11
6.58153
 21
15.638
 31
0.0
  0
LINE
  8
0
 62
     0
 10
6.58153
 20
15.638
 30
0.0
 11
7.38216
 21
15.638
 31
0.0
  0
LINE
  8
0
 62
     0
 10
7.38216
 20
15.638
 30
0.0
 11
7.38216
 21
16.6384
 31
0.0
  0
LINE
  8
0
 62
     0
 10
7.38216
 20
16.6384
 30
0.0
 11
21.3817
 21
16.6384
 31
0.0
  0
LINE
  8
0
 62
     0
 10
21.3817
 20
16.6384
 30
0.0
 11
21.3817
 21
15.638
 31
0.0
  0
LINE
  8
0
 62
     0
 10
21.3817
 20
15.638
 30
0.0
 11
22.1823
 21
15.638
 31
0.0
  0
LINE
  8
0
 62
     0
 10
22.1823
 20
15.638
 30
0.0
 11
22.1823
 21
12.5374
 31
0.0
  0
LINE
  8
0
 62
     0
 10
22.1823
 20
12.5374
 30
0.0
 11
21.3817
 21
12.5374
 31
0.0
  0
LINE
  8
0
 62
     0
 10
21.3817
 20
12.5374
 30
0.0
 11
21.3817
 21
6.73862
 31
0.0
  0
LINE
  8
0
 62
     0
 10
21.3817
 20
6.73862
 30
0.0
 11
22.1823
 21
6.73862
 31
0.0
  0
LINE
  8
0
 62
     0
 10
22.1823
 20
6.73862
 30
0.0
 11
22.1823
 21
3.63802
 31
0.0
  0
LINE
  8
0
 62
     0
 10
22.1823
 20
3.63802
 30
0.0
 11
21.3817
 21
3.63802
 31
0.0
  0
LINE
  8
0
 62
     0
 10
35.669
 20
60.7882
 30
0.0
 11
35.669
 21
59.7877
 31
0.0
  0
LINE
  8
0
 62
     0
 10
35.669
 20
59.7877
 30
0.0
 11
21.6683
 21
59.7877
 31
0.0
  0
LINE
  8
0
 62
     0
 10
21.6683
 20
59.7877
 30
0.0
 11
21.6683
 21
60.7882
 31
0.0
  0
LINE
  8
0
 62
     0
 10
21.6683
 20
60.7882
 30
0.0
 11
20.869
 21
60.7882
 31
0.0
  0
LINE
  8
0
 62
     0
 10
20.869
 20
60.7882
 30
0.0
 11
20.869
 21
63.8888
 31
0.0
  0
LINE
  8
0
 62
     0
 10
20.869
 20
63.8888
 30
0.0
 11
21.6683
 21
63.8888
 31
0.0
  0
LINE
  8
0
 62
     0
 10
21.6683
 20
63.8888
 30
0.0
 11
21.6683
 21
69.6874
 31
0.0
  0
LINE
  8
0
 62
     0
 10
21.6683
 20
69.6874
 30
0.0
 11
20.869
 21
69.6874
 31
0.0
  0
LINE
  8
0
 62
     0
 10
20.869
 20
69.6874
 30
0.0
 11
20.869
 21
72.7879
 31
0.0
  0
LINE
  8
0
 62
     0
 10
20.869
 20
72.7879
 30
0.0
 11
21.6683
 21
72.7879
 31
0.0
  0
LINE
  8
0
 62
     0
 10
21.6683
 20
72.7879
 30
0.0
 11
21.6683
 21
73.7884
 31
0.0
  0
LINE
  8
0
 62
     0
 10
21.6683
 20
73.7884
 30
0.0
 11
35.669
 21
73.7884
 31
0.0
  0
LINE
  8
0
 62
     0
 10
35.669
 20
73.7884
 30
0.0
 11
35.669
 21
72.7879
 31
0.0
  0
LINE
  8
0
 62
     0
 10
35.669
 20
72.7879
 30
0.0
 11
36.4684
 21
72.7879
 31
0.0
  0
LINE
  8
0
 62
     0
 10
36.4684
 20
72.7879
 30
0.0
 11
36.4684
 21
69.6874
 31
0.0
  0
LINE
  8
0
 62
     0
 10
36.4684
 20
69.6874
 30
0.0
 11
35.669
 21
69.6874
 31
0.0
  0
LINE
  8
0
 62
     0
 10
35.669
 20
69.6874
 30
0.0
 11
35.669
 21
63.8888
 31
0.0
  0
LINE
  8
0
 62
     0
 10
35.669
 20
63.8888
 30
0.0
 11
36.4684
 21
63.8888
 31
0.0
  0
LINE
  8
0
 62
     0
 10
36.4684
 20
63.8888
 30
0.0
 11
36.4684
 21
60.7882
 31
0.0
  0
LINE
  8
0
 62
     0
 10
36.4684
 20
60.7882
 30
0.0
 11
35.669
 21
60.7882
 31
0.0
  0
LINE
  8
0
 62
     0
 10
35.669
 20
22.688
 30
0.0
 11
35.669
 21
21.6876
 31
0.0
  0
LINE
  8
0
 62
     0
 10
35.669
 20
21.6876
 30
0.0
 11
21.6683
 21
21.6876
 31
0.0
  0
LINE
  8
0
 62
     0
 10
21.6683
 20
21.6876
 30
0.0
 11
21.6683
 21
22.688
 31
0.0
  0
LINE
  8
0
 62
     0
 10
21.6683
 20
22.688
 30
0.0
 11
20.869
 21
22.688
 31
0.0
  0
LINE
  8
0
 62
     0
 10
20.869
 20
22.688
 30
0.0
 11
20.869
 21
25.7886
 31
0.0
  0
LINE
  8
0
 62
     0
 10
20.869
 20
25.7886
 30
0.0
 11
21.6683
 21
25.7886
 31
0.0
  0
LINE
  8
0
 62
     0
 10
21.6683
 20
25.7886
 30
0.0
 11
21.6683
 21
31.5874
 31
0.0
  0
LINE
  8
0
 62
     0
 10
21.6683
 20
31.5874
 30
0.0
 11
20.869
 21
31.5874
 31
0.0
  0
LINE
  8
0
 62
     0
 10
20.869
 20
31.5874
 30
0.0
 11
20.869
 21
34.688
 31
0.0
  0
LINE
  8
0
 62
     0
 10
20.869
 20
34.688
 30
0.0
 11
21.6683
 21
34.688
 31
0.0
  0
LINE
  8
0
 62
     0
 10
21.6683
 20
34.688
 30
0.0
 11
21.6683
 21
35.6884
 31
0.0
  0
LINE
  8
0
 62
     0
 10
21.6683
 20
35.6884
 30
0.0
 11
35.669
 21
35.6884
 31
0.0
  0
LINE
  8
0
 62
     0
 10
35.669
 20
35.6884
 30
0.0
 11
35.669
 21
34.688
 31
0.0
  0
LINE
  8
0
 62
     0
 10
35.669
 20
34.688
 30
0.0
 11
36.4684
 21
34.688
 31
0.0
  0
LINE
  8
0
 62
     0
 10
36.4684
 20
34.688
 30
0.0
 11
36.4684
 21
31.5874
 31
0.0
  0
LINE
  8
0
 62
     0
 10
36.4684
 20
31.5874
 30
0.0
 11
35.669
 21
31.5874
 31
0.0
  0
LINE
  8
0
 62
     0
 10
35.669
 20
31.5874
 30
0.0
 11
35.669
 21
25.7886
 31
0.0
  0
LINE
  8
0
 62
     0
 10
35.669
 20
25.7886
 30
0.0
 11
36.4684
 21
25.7886
 31
0.0
  0
LINE
  8
0
 62
     0
 10
36.4684
 20
25.7886
 30
0.0
 11
36.4684
 21
22.688
 31
0.0
  0
LINE
  8
0
 62
     0
 10
36.4684
 20
22.688
 30
0.0
 11
35.669
 21
22.688
 31
0.0
  0
LINE
  8
0
 62
     0
 10
45.194
 20
41.7382
 30
0.0
 11
45.194
 21
40.7377
 31
0.0
  0
LINE
  8
0
 62
     0
 10
45.194
 20
40.7377
 30
0.0
 11
31.1933
 21
40.7377
 31
0.0
  0
LINE
  8
0
 62
     0
 10
31.1933
 20
40.7377
 30
0.0
 11
31.1933
 21
41.7382
 31
0.0
  0
LINE
  8
0
 62
     0
 10
31.1933
 20
41.7382
 30
0.0
 11
30.394
 21
41.7382
 31
0.0
  0
LINE
  8
0
 62
     0
 10
30.394
 20
41.7382
 30
0.0
 11
30.394
 21
44.8388
 31
0.0
  0
LINE
  8
0
 62
     0
 10
30.394
 20
44.8388
 30
0.0
 11
31.1933
 21
44.8388
 31
0.0
  0
LINE
  8
0
 62
     0
 10
31.1933
 20
44.8388
 30
0.0
 11
31.1933
 21
50.6374
 31
0.0
  0
LINE
  8
0
 62
     0
 10
31.1933
 20
50.6374
 30
0.0
 11
30.394
 21
50.6374
 31
0.0
  0
LINE
  8
0
 62
     0
 10
30.394
 20
50.6374
 30
0.0
 11
30.394
 21
53.7379
 31
0.0
  0
LINE
  8
0
 62
     0
 10
30.394
 20
53.7379
 30
0.0
 11
31.1933
 21
53.7379
 31
0.0
  0
LINE
  8
0
 62
     0
 10
31.1933
 20
53.7379
 30
0.0
 11
31.1933
 21
54.7384
 31
0.0
  0
LINE
  8
0
 62
     0
 10
31.1933
 20
54.7384
 30
0.0
 11
45.194
 21
54.7384
 31
0.0
  0
LINE
  8
0
 62
     0
 10
45.194
 20
54.7384
 30
0.0
 11
45.194
 21
53.7379
 31
0.0
  0
LINE
  8
0
 62
     0
 10
45.194
 20
53.7379
 30
0.0
 11
45.9934
 21
53.7379
 31
0.0
  0
LINE
  8
0
 62
     0
 10
45.9934
 20
53.7379
 30
0.0
 11
45.9934
 21
50.6374
 31
0.0
  0
LINE
  8
0
 62
     0
 10
45.9934
 20
50.6374
 30
0.0
 11
45.194
 21
50.6374
 31
0.0
  0
LINE
  8
0
 62
     0
 10
45.194
 20
50.6374
 30
0.0
 11
45.194
 21
44.8388
 31
0.0
  0
LINE
  8
0
 62
     0
 10
45.194
 20
44.8388
 30
0.0
 11
45.9934
 21
44.8388
 31
0.0
  0
LINE
  8
0
 62
     0
 10
45.9934
 20
44.8388
 30
0.0
 11
45.9934
 21
41.7382
 31
0.0
  0
LINE
  8
0
 62
     0
 10
45.9934
 20
41.7382
 30
0.0
 11
45.194
 21
41.7382
 31
0.0
  0
LINE
  8
0
 62
     0
 10
49.9565
 20
3.63802
 30
0.0
 11
49.9565
 21
2.63756
 31
0.0
  0
LINE
  8
0
 62
     0
 10
49.9565
 20
2.63756
 30
0.0
 11
35.9572
 21
2.63756
 31
0.0
  0
LINE
  8
0
 62
     0
 10
35.9572
 20
2.63756
 30
0.0
 11
35.9572
 21
3.63802
 31
0.0
  0
LINE
  8
0
 62
     0
 10
35.9572
 20
3.63802
 30
0.0
 11
35.1565
 21
3.63802
 31
0.0
  0
LINE
  8
0
 62
     0
 10
35.1565
 20
3.63802
 30
0.0
 11
35.1565
 21
6.73862
 31
0.0
  0
LINE
  8
0
 62
     0
 10
35.1565
 20
6.73862
 30
0.0
 11
35.9572
 21
6.73862
 31
0.0
  0
LINE
  8
0
 62
     0
 10
35.9572
 20
6.73862
 30
0.0
 11
35.9572
 21
12.5374
 31
0.0
  0
LINE
  8
0
 62
     0
 10
35.9572
 20
12.5374
 30
0.0
 11
35.1565
 21
12.5374
 31
0.0
  0
LINE
  8
0
 62
     0
 10
35.1565
 20
12.5374
 30
0.0
 11
35.1565
 21
15.638
 31
0.0
  0
LINE
  8
0
 62
     0
 10
35.1565
 20
15.638
 30
0.0
 11
35.9572
 21
15.638
 31
0.0
  0
LINE
  8
0
 62
     0
 10
35.9572
 20
15.638
 30
0.0
 11
35.9572
 21
16.6384
 31
0.0
  0
LINE
  8
0
 62
     0
 10
35.9572
 20
16.6384
 30
0.0
 11
49.9565
 21
16.6384
 31
0.0
  0
LINE
  8
0
 62
     0
 10
49.9565
 20
16.6384
 30
0.0
 11
49.9565
 21
15.638
 31
0.0
  0
LINE
  8
0
 62
     0
 10
49.9565
 20
15.638
 30
0.0
 11
50.7573
 21
15.638
 31
0.0
  0
LINE
  8
0
 62
     0
 10
50.7573
 20
15.638
 30
0.0
 11
50.7573
 21
12.5374
 31
0.0
  0
LINE
  8
0
 62
     0
 10
50.7573
 20
12.5374
 30
0.0
 11
49.9565
 21
12.5374
 31
0.0
  0
LINE
  8
0
 62
     0
 10
49.9565
 20
12.5374
 30
0.0
 11
49.9565
 21
6.73862
 31
0.0
  0
LINE
  8
0
 62
     0
 10
49.9565
 20
6.73862
 30
0.0
 11
50.7573
 21
6.73862
 31
0.0
  0
LINE
  8
0
 62
     0
 10
50.7573
 20
6.73862
 30
0.0
 11
50.7573
 21
3.63802
 31
0.0
  0
LINE
  8
0
 62
     0
 10
50.7573
 20
3.63802
 30
0.0
 11
49.9565
 21
3.63802
 31
0.0
  0
LINE
  8
0
 62
     0
 10
54.719
 20
60.7882
 30
0.0
 11
54.719
 21
59.7877
 31
0.0
  0
LINE
  8
0
 62
     0
 10
54.719
 20
59.7877
 30
0.0
 11
40.7183
 21
59.7877
 31
0.0
  0
LINE
  8
0
 62
     0
 10
40.7183
 20
59.7877
 30
0.0
 11
40.7183
 21
60.7882
 31
0.0
  0
LINE
  8
0
 62
     0
 10
40.7183
 20
60.7882
 30
0.0
 11
39.9189
 21
60.7882
 31
0.0
  0
LINE
  8
0
 62
     0
 10
39.9189
 20
60.7882
 30
0.0
 11
39.9189
 21
63.8888
 31
0.0
  0
LINE
  8
0
 62
     0
 10
39.9189
 20
63.8888
 30
0.0
 11
40.7183
 21
63.8888
 31
0.0
  0
LINE
  8
0
 62
     0
 10
40.7183
 20
63.8888
 30
0.0
 11
40.7183
 21
69.6874
 31
0.0
  0
LINE
  8
0
 62
     0
 10
40.7183
 20
69.6874
 30
0.0
 11
39.9189
 21
69.6874
 31
0.0
  0
LINE
  8
0
 62
     0
 10
39.9189
 20
69.6874
 30
0.0
 11
39.9189
 21
72.7879
 31
0.0
  0
LINE
  8
0
 62
     0
 10
39.9189
 20
72.7879
 30
0.0
 11
40.7183
 21
72.7879
 31
0.0
  0
LINE
  8
0
 62
     0
 10
40.7183
 20
72.7879
 30
0.0
 11
40.7183
 21
73.7884
 31
0.0
  0
LINE
  8
0
 62
     0
 10
40.7183
 20
73.7884
 30
0.0
 11
54.719
 21
73.7884
 31
0.0
  0
LINE
  8
0
 62
     0
 10
54.719
 20
73.7884
 30
0.0
 11
54.719
 21
72.7879
 31
0.0
  0
LINE
  8
0
 62
     0
 10
54.719
 20
72.7879
 30
0.0
 11
55.5184
 21
72.7879
 31
0.0
  0
LINE
  8
0
 62
     0
 10
55.5184
 20
72.7879
 30
0.0
 11
55.5184
 21
69.6874
 31
0.0
  0
LINE
  8
0
 62
     0
 10
55.5184
 20
69.6874
 30
0.0
 11
54.719
 21
69.6874
 31
0.0
  0
LINE
  8
0
 62
     0
 10
54.719
 20
69.6874
 30
0.0
 11
54.719
 21
63.8888
 31
0.0
  0
LINE
  8
0
 62
     0
 10
54.719
 20
63.8888
 30
0.0
 11
55.5184
 21
63.8888
 31
0.0
  0
LINE
  8
0
 62
     0
 10
55.5184
 20
63.8888
 30
0.0
 11
55.5184
 21
60.7882
 31
0.0
  0
LINE
  8
0
 62
     0
 10
55.5184
 20
60.7882
 30
0.0
 11
54.719
 21
60.7882
 31
0.0
  0
LINE
  8
0
 62
     0
 10
54.719
 20
22.688
 30
0.0
 11
54.719
 21
21.6876
 31
0.0
  0
LINE
  8
0
 62
     0
 10
54.719
 20
21.6876
 30
0.0
 11
40.7183
 21
21.6876
 31
0.0
  0
LINE
  8
0
 62
     0
 10
40.7183
 20
21.6876
 30
0.0
 11
40.7183
 21
22.688
 31
0.0
  0
LINE
  8
0
 62
     0
 10
40.7183
 20
22.688
 30
0.0
 11
39.9189
 21
22.688
 31
0.0
  0
LINE
  8
0
 62
     0
 10
39.9189
 20
22.688
 30
0.0
 11
39.9189
 21
25.7886
 31
0.0
  0
LINE
  8
0
 62
     0
 10
39.9189
 20
25.7886
 30
0.0
 11
40.7183
 21
25.7886
 31
0.0
  0
LINE
  8
0
 62
     0
 10
40.7183
 20
25.7886
 30
0.0
 11
40.7183
 21
31.5874
 31
0.0
  0
LINE
  8
0
 62
     0
 10
40.7183
 20
31.5874
 30
0.0
 11
39.9189
 21
31.5874
 31
0.0
  0
LINE
  8
0
 62
     0
 10
39.9189
 20
31.5874
 30
0.0
 11
39.9189
 21
34.688
 31
0.0
  0
LINE
  8
0
 62
     0
 10
39.9189
 20
34.688
 30
0.0
 11
40.7183
 21
34.688
 31
0.0
  0
LINE
  8
0
 62
     0
 10
40.7183
 20
34.688
 30
0.0
 11
40.7183
 21
35.6884
 31
0.0
  0
LINE
  8
0
 62
     0
 10
40.7183
 20
35.6884
 30
0.0
 11
54.719
 21
35.6884
 31
0.0
  0
LINE
  8
0
 62
     0
 10
54.719
 20
35.6884
 30
0.0
 11
54.719
 21
34.688
 31
0.0
  0
LINE
  8
0
 62
     0
 10
54.719
 20
34.688
 30
0.0
 11
55.5184
 21
34.688
 31
0.0
  0
LINE
  8
0
 62
     0
 10
55.5184
 20
34.688
 30
0.0
 11
55.5184
 21
31.5874
 31
0.0
  0
LINE
  8
0
 62
     0
 10
55.5184
 20
31.5874
 30
0.0
 11
54.719
 21
31.5874
 31
0.0
  0
LINE
  8
0
 62
     0
 10
54.719
 20
31.5874
 30
0.0
 11
54.719
 21
25.7886
 31
0.0
  0
LINE
  8
0
 62
     0
 10
54.719
 20
25.7886
 30
0.0
 11
55.5184
 21
25.7886
 31
0.0
  0
LINE
  8
0
 62
     0
 10
55.5184
 20
25.7886
 30
0.0
 11
55.5184
 21
22.688
 31
0.0
  0
LINE
  8
0
 62
     0
 10
55.5184
 20
22.688
 30
0.0
 11
54.719
 21
22.688
 31
0.0
  0
LINE
  8
0
 62
     0
 10
64.244
 20
41.7382
 30
0.0
 11
64.244
 21
40.7377
 31
0.0
  0
LINE
  8
0
 62
     0
 10
64.244
 20
40.7377
 30
0.0
 11
50.2433
 21
40.7377
 31
0.0
  0
LINE
  8
0
 62
     0
 10
50.2433
 20
40.7377
 30
0.0
 11
50.2433
 21
41.7382
 31
0.0
  0
LINE
  8
0
 62
     0
 10
50.2433
 20
41.7382
 30
0.0
 11
49.4439
 21
41.7382
 31
0.0
  0
LINE
  8
0
 62
     0
 10
49.4439
 20
41.7382
 30
0.0
 11
49.4439
 21
44.8388
 31
0.0
  0
LINE
  8
0
 62
     0
 10
49.4439
 20
44.8388
 30
0.0
 11
50.2433
 21
44.8388
 31
0.0
  0
LINE
  8
0
 62
     0
 10
50.2433
 20
44.8388
 30
0.0
 11
50.2433
 21
50.6374
 31
0.0
  0
LINE
  8
0
 62
     0
 10
50.2433
 20
50.6374
 30
0.0
 11
49.4439
 21
50.6374
 31
0.0
  0
LINE
  8
0
 62
     0
 10
49.4439
 20
50.6374
 30
0.0
 11
49.4439
 21
53.7379
 31
0.0
  0
LINE
  8
0
 62
     0
 10
49.4439
 20
53.7379
 30
0.0
 11
50.2433
 21
53.7379
 31
0.0
  0
LINE
  8
0
 62
     0
 10
50.2433
 20
53.7379
 30
0.0
 11
50.2433
 21
54.7384
 31
0.0
  0
LINE
  8
0
 62
     0
 10
50.2433
 20
54.7384
 30
0.0
 11
64.244
 21
54.7384
 31
0.0
  0
LINE
  8
0
 62
     0
 10
64.244
 20
54.7384
 30
0.0
 11
64.244
 21
53.7379
 31
0.0
  0
LINE
  8
0
 62
     0
 10
64.244
 20
53.7379
 30
0.0
 11
65.0434
 21
53.7379
 31
0.0
  0
LINE
  8
0
 62
     0
 10
65.0434
 20
53.7379
 30
0.0
 11
65.0434
 21
50.6374
 31
0.0
  0
LINE
  8
0
 62
     0
 10
65.0434
 20
50.6374
 30
0.0
 11
64.244
 21
50.6374
 31
0.0
  0
LINE
  8
0
 62
     0
 10
64.244
 20
50.6374
 30
0.0
 11
64.244
 21
44.8388
 31
0.0
  0
LINE
  8
0
 62
     0
 10
64.244
 20
44.8388
 30
0.0
 11
65.0434
 21
44.8388
 31
0.0
  0
LINE
  8
0
 62
     0
 10
65.0434
 20
44.8388
 30
0.0
 11
65.0434
 21
41.7382
 31
0.0
  0
LINE
  8
0
 62
     0
 10
65.0434
 20
41.7382
 30
0.0
 11
64.244
 21
41.7382
 31
0.0
  0
LINE
  8
0
 62
     0
 10
73.769
 20
60.7882
 30
0.0
 11
73.769
 21
59.7877
 31
0.0
  0
LINE
  8
0
 62
     0
 10
73.769
 20
59.7877
 30
0.0
 11
59.7683
 21
59.7877
 31
0.0
  0
LINE
  8
0
 62
     0
 10
59.7683
 20
59.7877
 30
0.0
 11
59.7683
 21
60.7882
 31
0.0
  0
LINE
  8
0
 62
     0
 10
59.7683
 20
60.7882
 30
0.0
 11
58.9689
 21
60.7882
 31
0.0
  0
LINE
  8
0
 62
     0
 10
58.9689
 20
60.7882
 30
0.0
 11
58.9689
 21
63.8888
 31
0.0
  0
LINE
  8
0
 62
     0
 10
58.9689
 20
63.8888
 30
0.0
 11
59.7683
 21
63.8888
 31
0.0
  0
LINE
  8
0
 62
     0
 10
59.7683
 20
63.8888
 30
0.0
 11
59.7683
 21
69.6874
 31
0.0
  0
LINE
  8
0
 62
     0
 10
59.7683
 20
69.6874
 30
0.0
 11
58.9689
 21
69.6874
 31
0.0
  0
LINE
  8
0
 62
     0
 10
58.9689
 20
69.6874
 30
0.0
 11
58.9689
 21
72.7879
 31
0.0
  0
LINE
  8
0
 62
     0
 10
58.9689
 20
72.7879
 30
0.0
 11
59.7683
 21
72.7879
 31
0.0
  0
LINE
  8
0
 62
     0
 10
59.7683
 20
72.7879
 30
0.0
 11
59.7683
 21
73.7884
 31
0.0
  0
LINE
  8
0
 62
     0
 10
59.7683
 20
73.7884
 30
0.0
 11
73.769
 21
73.7884
 31
0.0
  0
LINE
  8
0
 62
     0
 10
73.769
 20
73.7884
 30
0.0
 11
73.769
 21
72.7879
 31
0.0
  0
LINE
  8
0
 62
     0
 10
73.769
 20
72.7879
 30
0.0
 11
74.5684
 21
72.7879
 31
0.0
  0
LINE
  8
0
 62
     0
 10
74.5684
 20
72.7879
 30
0.0
 11
74.5684
 21
69.6874
 31
0.0
  0
LINE
  8
0
 62
     0
 10
74.5684
 20
69.6874
 30
0.0
 11
73.769
 21
69.6874
 31
0.0
  0
LINE
  8
0
 62
     0
 10
73.769
 20
69.6874
 30
0.0
 11
73.769
 21
63.8888
 31
0.0
  0
LINE
  8
0
 62
     0
 10
73.769
 20
63.8888
 30
0.0
 11
74.5684
 21
63.8888
 31
0.0
  0
LINE
  8
0
 62
     0
 10
74.5684
 20
63.8888
 30
0.0
 11
74.5684
 21
60.7882
 31
0.0
  0
LINE
  8
0
 62
     0
 10
74.5684
 20
60.7882
 30
0.0
 11
73.769
 21
60.7882
 31
0.0
  0
LINE
  8
0
 62
     0
 10
73.769
 20
22.688
 30
0.0
 11
73.769
 21
21.6876
 31
0.0
  0
LINE
  8
0
 62
     0
 10
73.769
 20
21.6876
 30
0.0
 11
59.7683
 21
21.6876
 31
0.0
  0
LINE
  8
0
 62
     0
 10
59.7683
 20
21.6876
 30
0.0
 11
59.7683
 21
22.688
 31
0.0
  0
LINE
  8
0
 62
     0
 10
59.7683
 20
22.688
 30
0.0
 11
58.9689
 21
22.688
 31
0.0
  0
LINE
  8
0
 62
     0
 10
58.9689
 20
22.688
 30
0.0
 11
58.9689
 21
25.7886
 31
0.0
  0
LINE
  8
0
 62
     0
 10
58.9689
 20
25.7886
 30
0.0
 11
59.7683
 21
25.7886
 31
0.0
  0
LINE
  8
0
 62
     0
 10
59.7683
 20
25.7886
 30
0.0
 11
59.7683
 21
31.5874
 31
0.0
  0
LINE
  8
0
 62
     0
 10
59.7683
 20
31.5874
 30
0.0
 11
58.9689
 21
31.5874
 31
0.0
  0
LINE
  8
0
 62
     0
 10
58.9689
 20
31.5874
 30
0.0
 11
58.9689
 21
34.688
 31
0.0
  0
LINE
  8
0
 62
     0
 10
58.9689
 20
34.688
 30
0.0
 11
59.7683
 21
34.688
 31
0.0
  0
LINE
  8
0
 62
     0
 10
59.7683
 20
34.688
 30
0.0
 11
59.7683
 21
35.6884
 31
0.0
  0
LINE
  8
0
 62
     0
 10
59.7683
 20
35.6884
 30
0.0
 11
73.769
 21
35.6884
 31
0.0
  0
LINE
  8
0
 62
     0
 10
73.769
 20
35.6884
 30
0.0
 11
73.769
 21
34.688
 31
0.0
  0
LINE
  8
0
 62
     0
 10
73.769
 20
34.688
 30
0.0
 11
74.5684
 21
34.688
 31
0.0
  0
LINE
  8
0
 62
     0
 10
74.5684
 20
34.688
 30
0.0
 11
74.5684
 21
31.5874
 31
0.0
  0
LINE
  8
0
 62
     0
 10
74.5684
 20
31.5874
 30
0.0
 11
73.769
 21
31.5874
 31
0.0
  0
LINE
  8
0
 62
     0
 10
73.769
 20
31.5874
 30
0.0
 11
73.769
 21
25.7886
 31
0.0
  0
LINE
  8
0
 62
     0
 10
73.769
 20
25.7886
 30
0.0
 11
74.5684
 21
25.7886
 31
0.0
  0
LINE
  8
0
 62
     0
 10
74.5684
 20
25.7886
 30
0.0
 11
74.5684
 21
22.688
 31
0.0
  0
LINE
  8
0
 62
     0
 10
74.5684
 20
22.688
 30
0.0
 11
73.769
 21
22.688
 31
0.0
  0
LINE
  8
0
 62
     0
 10
76.1503
 20
3.63802
 30
0.0
 11
76.1503
 21
2.63756
 31
0.0
  0
LINE
  8
0
 62
     0
 10
76.1503
 20
2.63756
 30
0.0
 11
62.1496
 21
2.63756
 31
0.0
  0
LINE
  8
0
 62
     0
 10
62.1496
 20
2.63756
 30
0.0
 11
62.1496
 21
3.63802
 31
0.0
  0
LINE
  8
0
 62
     0
 10
62.1496
 20
3.63802
 30
0.0
 11
61.3502
 21
3.63802
 31
0.0
  0
LINE
  8
0
 62
     0
 10
61.3502
 20
3.63802
 30
0.0
 11
61.3502
 21
6.73862
 31
0.0
  0
LINE
  8
0
 62
     0
 10
61.3502
 20
6.73862
 30
0.0
 11
62.1496
 21
6.73862
 31
0.0
  0
LINE
  8
0
 62
     0
 10
62.1496
 20
6.73862
 30
0.0
 11
62.1496
 21
12.5374
 31
0.0
  0
LINE
  8
0
 62
     0
 10
62.1496
 20
12.5374
 30
0.0
 11
61.3502
 21
12.5374
 31
0.0
  0
LINE
  8
0
 62
     0
 10
61.3502
 20
12.5374
 30
0.0
 11
61.3502
 21
15.638
 31
0.0
  0
LINE
  8
0
 62
     0
 10
61.3502
 20
15.638
 30
0.0
 11
62.1496
 21
15.638
 31
0.0
  0
LINE
  8
0
 62
     0
 10
62.1496
 20
15.638
 30
0.0
 11
62.1496
 21
16.6384
 31
0.0
  0
LINE
  8
0
 62
     0
 10
62.1496
 20
16.6384
 30
0.0
 11
76.1503
 21
16.6384
 31
0.0
  0
LINE
  8
0
 62
     0
 10
76.1503
 20
16.6384
 30
0.0
 11
76.1503
 21
15.638
 31
0.0
  0
LINE
  8
0
 62
     0
 10
76.1503
 20
15.638
 30
0.0
 11
76.9497
 21
15.638
 31
0.0
  0
LINE
  8
0
 62
     0
 10
76.9497
 20
15.638
 30
0.0
 11
76.9497
 21
12.5374
 31
0.0
  0
LINE
  8
0
 62
     0
 10
76.9497
 20
12.5374
 30
0.0
 11
76.1503
 21
12.5374
 31
0.0
  0
LINE
  8
0
 62
     0
 10
76.1503
 20
12.5374
 30
0.0
 11
76.1503
 21
6.73862
 31
0.0
  0
LINE
  8
0
 62
     0
 10
76.1503
 20
6.73862
 30
0.0
 11
76.9497
 21
6.73862
 31
0.0
  0
LINE
  8
0
 62
     0
 10
76.9497
 20
6.73862
 30
0.0
 11
76.9497
 21
3.63802
 31
0.0
  0
LINE
  8
0
 62
     0
 10
76.9497
 20
3.63802
 30
0.0
 11
76.1503
 21
3.63802
 31
0.0
  0
LINE
  8
0
 62
     0
 10
83.294
 20
41.7382
 30
0.0
 11
83.294
 21
40.7377
 31
0.0
  0
LINE
  8
0
 62
     0
 10
83.294
 20
40.7377
 30
0.0
 11
69.2933
 21
40.7377
 31
0.0
  0
LINE
  8
0
 62
     0
 10
69.2933
 20
40.7377
 30
0.0
 11
69.2933
 21
41.7382
 31
0.0
  0
LINE
  8
0
 62
     0
 10
69.2933
 20
41.7382
 30
0.0
 11
68.4939
 21
41.7382
 31
0.0
  0
LINE
  8
0
 62
     0
 10
68.4939
 20
41.7382
 30
0.0
 11
68.4939
 21
44.8388
 31
0.0
  0
LINE
  8
0
 62
     0
 10
68.4939
 20
44.8388
 30
0.0
 11
69.2933
 21
44.8388
 31
0.0
  0
LINE
  8
0
 62
     0
 10
69.2933
 20
44.8388
 30
0.0
 11
69.2933
 21
50.6374
 31
0.0
  0
LINE
  8
0
 62
     0
 10
69.2933
 20
50.6374
 30
0.0
 11
68.4939
 21
50.6374
 31
0.0
  0
LINE
  8
0
 62
     0
 10
68.4939
 20
50.6374
 30
0.0
 11
68.4939
 21
53.7379
 31
0.0
  0
LINE
  8
0
 62
     0
 10
68.4939
 20
53.7379
 30
0.0
 11
69.2933
 21
53.7379
 31
0.0
  0
LINE
  8
0
 62
     0
 10
69.2933
 20
53.7379
 30
0.0
 11
69.2933
 21
54.7384
 31
0.0
  0
LINE
  8
0
 62
     0
 10
69.2933
 20
54.7384
 30
0.0
 11
83.294
 21
54.7384
 31
0.0
  0
LINE
  8
0
 62
     0
 10
83.294
 20
54.7384
 30
0.0
 11
83.294
 21
53.7379
 31
0.0
  0
LINE
  8
0
 62
     0
 10
83.294
 20
53.7379
 30
0.0
 11
84.0934
 21
53.7379
 31
0.0
  0
LINE
  8
0
 62
     0
 10
84.0934
 20
53.7379
 30
0.0
 11
84.0934
 21
50.6374
 31
0.0
  0
LINE
  8
0
 62
     0
 10
84.0934
 20
50.6374
 30
0.0
 11
83.294
 21
50.6374
 31
0.0
  0
LINE
  8
0
 62
     0
 10
83.294
 20
50.6374
 30
0.0
 11
83.294
 21
44.8388
 31
0.0
  0
LINE
  8
0
 62
     0
 10
83.294
 20
44.8388
 30
0.0
 11
84.0934
 21
44.8388
 31
0.0
  0
LINE
  8
0
 62
     0
 10
84.0934
 20
44.8388
 30
0.0
 11
84.0934
 21
41.7382
 31
0.0
  0
LINE
  8
0
 62
     0
 10
84.0934
 20
41.7382
 30
0.0
 11
83.294
 21
41.7382
 31
0.0
  0
LINE
  8
0
 62
     0
 10
92.819
 20
60.7882
 30
0.0
 11
92.819
 21
59.7877
 31
0.0
  0
LINE
  8
0
 62
     0
 10
92.819
 20
59.7877
 30
0.0
 11
78.8183
 21
59.7877
 31
0.0
  0
LINE
  8
0
 62
     0
 10
78.8183
 20
59.7877
 30
0.0
 11
78.8183
 21
60.7882
 31
0.0
  0
LINE
  8
0
 62
     0
 10
78.8183
 20
60.7882
 30
0.0
 11
78.0189
 21
60.7882
 31
0.0
  0
LINE
  8
0
 62
     0
 10
78.0189
 20
60.7882
 30
0.0
 11
78.0189
 21
63.8888
 31
0.0
  0
LINE
  8
0
 62
     0
 10
78.0189
 20
63.8888
 30
0.0
 11
78.8183
 21
63.8888
 31
0.0
  0
LINE
  8
0
 62
     0
 10
78.8183
 20
63.8888
 30
0.0
 11
78.8183
 21
69.6874
 31
0.0
  0
LINE
  8
0
 62
     0
 10
78.8183
 20
69.6874
 30
0.0
 11
78.0189
 21
69.6874
 31
0.0
  0
LINE
  8
0
 62
     0
 10
78.0189
 20
69.6874
 30
0.0
 11
78.0189
 21
72.7879
 31
0.0
  0
LINE
  8
0
 62
     0
 10
78.0189
 20
72.7879
 30
0.0
 11
78.8183
 21
72.7879
 31
0.0
  0
LINE
  8
0
 62
     0
 10
78.8183
 20
72.7879
 30
0.0
 11
78.8183
 21
73.7884
 31
0.0
  0
LINE
  8
0
 62
     0
 10
78.8183
 20
73.7884
 30
0.0
 11
92.819
 21
73.7884
 31
0.0
  0
LINE
  8
0
 62
     0
 10
92.819
 20
73.7884
 30
0.0
 11
92.819
 21
72.7879
 31
0.0
  0
LINE
  8
0
 62
     0
 10
92.819
 20
72.7879
 30
0.0
 11
93.6184
 21
72.7879
 31
0.0
  0
LINE
  8
0
 62
     0
 10
93.6184
 20
72.7879
 30
0.0
 11
93.6184
 21
69.6874
 31
0.0
  0
LINE
  8
0
 62
     0
 10
93.6184
 20
69.6874
 30
0.0
 11
92.819
 21
69.6874
 31
0.0
  0
LINE
  8
0
 62
     0
 10
92.819
 20
69.6874
 30
0.0
 11
92.819
 21
63.8888
 31
0.0
  0
LINE
  8
0
 62
     0
 10
92.819
 20
63.8888
 30
0.0
 11
93.6184
 21
63.8888
 31
0.0
  0
LINE
  8
0
 62
     0
 10
93.6184
 20
63.8888
 30
0.0
 11
93.6184
 21
60.7882
 31
0.0
  0
LINE
  8
0
 62
     0
 10
93.6184
 20
60.7882
 30
0.0
 11
92.819
 21
60.7882
 31
0.0
  0
LINE
  8
0
 62
     0
 10
92.819
 20
22.688
 30
0.0
 11
92.819
 21
21.6876
 31
0.0
  0
LINE
  8
0
 62
     0
 10
92.819
 20
21.6876
 30
0.0
 11
78.8183
 21
21.6876
 31
0.0
  0
LINE
  8
0
 62
     0
 10
78.8183
 20
21.6876
 30
0.0
 11
78.8183
 21
22.688
 31
0.0
  0
LINE
  8
0
 62
     0
 10
78.8183
 20
22.688
 30
0.0
 11
78.0189
 21
22.688
 31
0.0
  0
LINE
  8
0
 62
     0
 10
78.0189
 20
22.688
 30
0.0
 11
78.0189
 21
25.7886
 31
0.0
  0
LINE
  8
0
 62
     0
 10
78.0189
 20
25.7886
 30
0.0
 11
78.8183
 21
25.7886
 31
0.0
  0
LINE
  8
0
 62
     0
 10
78.8183
 20
25.7886
 30
0.0
 11
78.8183
 21
31.5874
 31
0.0
  0
LINE
  8
0
 62
     0
 10
78.8183
 20
31.5874
 30
0.0
 11
78.0189
 21
31.5874
 31
0.0
  0
LINE
  8
0
 62
     0
 10
78.0189
 20
31.5874
 30
0.0
 11
78.0189
 21
34.688
 31
0.0
  0
LINE
  8
0
 62
     0
 10
78.0189
 20
34.688
 30
0.0
 11
78.8183
 21
34.688
 31
0.0
  0
LINE
  8
0
 62
     0
 10
78.8183
 20
34.688
 30
0.0
 11
78.8183
 21
35.6884
 31
0.0
  0
LINE
  8
0
 62
     0
 10
78.8183
 20
35.6884
 30
0.0
 11
92.819
 21
35.6884
 31
0.0
  0
LINE
  8
0
 62
     0
 10
92.819
 20
35.6884
 30
0.0
 11
92.819
 21
34.688
 31
0.0
  0
LINE
  8
0
 62
     0
 10
92.819
 20
34.688
 30
0.0
 11
93.6184
 21
34.688
 31
0.0
  0
LINE
  8
0
 62
     0
 10
93.6184
 20
34.688
 30
0.0
 11
93.6184
 21
31.5874
 31
0.0
  0
LINE
  8
0
 62
     0
 10
93.6184
 20
31.5874
 30
0.0
 11
92.819
 21
31.5874
 31
0.0
  0
LINE
  8
0
 62
     0
 10
92.819
 20
31.5874
 30
0.0
 11
92.819
 21
25.7886
 31
0.0
  0
LINE
  8
0
 62
     0
 10
92.819
 20
25.7886
 30
0.0
 11
93.6184
 21
25.7886
 31
0.0
  0
LINE
  8
0
 62
     0
 10
93.6184
 20
25.7886
 30
0.0
 11
93.6184
 21
22.688
 31
0.0
  0
LINE
  8
0
 62
     0
 10
93.6184
 20
22.688
 30
0.0
 11
92.819
 21
22.688
 31
0.0
  0
LINE
  8
0
 62
     0
 10
102.344
 20
41.7382
 30
0.0
 11
102.344
 21
40.7377
 31
0.0
  0
LINE
  8
0
 62
     0
 10
102.344
 20
40.7377
 30
0.0
 11
88.3433
 21
40.7377
 31
0.0
  0
LINE
  8
0
 62
     0
 10
88.3433
 20
40.7377
 30
0.0
 11
88.3433
 21
41.7382
 31
0.0
  0
LINE
  8
0
 62
     0
 10
88.3433
 20
41.7382
 30
0.0
 11
87.5439
 21
41.7382
 31
0.0
  0
LINE
  8
0
 62
     0
 10
87.5439
 20
41.7382
 30
0.0
 11
87.5439
 21
44.8388
 31
0.0
  0
LINE
  8
0
 62
     0
 10
87.5439
 20
44.8388
 30
0.0
 11
88.3433
 21
44.8388
 31
0.0
  0
LINE
  8
0
 62
     0
 10
88.3433
 20
44.8388
 30
0.0
 11
88.3433
 21
50.6374
 31
0.0
  0
LINE
  8
0
 62
     0
 10
88.3433
 20
50.6374
 30
0.0
 11
87.5439
 21
50.6374
 31
0.0
  0
LINE
  8
0
 62
     0
 10
87.5439
 20
50.6374
 30
0.0
 11
87.5439
 21
53.7379
 31
0.0
  0
LINE
  8
0
 62
     0
 10
87.5439
 20
53.7379
 30
0.0
 11
88.3433
 21
53.7379
 31
0.0
  0
LINE
  8
0
 62
     0
 10
88.3433
 20
53.7379
 30
0.0
 11
88.3433
 21
54.7384
 31
0.0
  0
LINE
  8
0
 62
     0
 10
88.3433
 20
54.7384
 30
0.0
 11
102.344
 21
54.7384
 31
0.0
  0
LINE
  8
0
 62
     0
 10
102.344
 20
54.7384
 30
0.0
 11
102.344
 21
53.7379
 31
0.0
  0
LINE
  8
0
 62
     0
 10
102.344
 20
53.7379
 30
0.0
 11
103.143
 21
53.7379
 31
0.0
  0
LINE
  8
0
 62
     0
 10
103.143
 20
53.7379
 30
0.0
 11
103.143
 21
50.6374
 31
0.0
  0
LINE
  8
0
 62
     0
 10
103.143
 20
50.6374
 30
0.0
 11
102.344
 21
50.6374
 31
0.0
  0
LINE
  8
0
 62
     0
 10
102.344
 20
50.6374
 30
0.0
 11
102.344
 21
44.8388
 31
0.0
  0
LINE
  8
0
 62
     0
 10
102.344
 20
44.8388
 30
0.0
 11
103.143
 21
44.8388
 31
0.0
  0
LINE
  8
0
 62
     0
 10
103.143
 20
44.8388
 30
0.0
 11
103.143
 21
41.7382
 31
0.0
  0
LINE
  8
0
 62
     0
 10
103.143
 20
41.7382
 30
0.0
 11
102.344
 21
41.7382
 31
0.0
  0
LINE
  8
0
 62
     0
 10
111.869
 20
60.7882
 30
0.0
 11
111.869
 21
59.7877
 31
0.0
  0
LINE
  8
0
 62
     0
 10
111.869
 20
59.7877
 30
0.0
 11
97.8683
 21
59.7877
 31
0.0
  0
LINE
  8
0
 62
     0
 10
97.8683
 20
59.7877
 30
0.0
 11
97.8683
 21
60.7882
 31
0.0
  0
LINE
  8
0
 62
     0
 10
97.8683
 20
60.7882
 30
0.0
 11
97.0689
 21
60.7882
 31
0.0
  0
LINE
  8
0
 62
     0
 10
97.0689
 20
60.7882
 30
0.0
 11
97.0689
 21
63.8888
 31
0.0
  0
LINE
  8
0
 62
     0
 10
97.0689
 20
63.8888
 30
0.0
 11
97.8683
 21
63.8888
 31
0.0
  0
LINE
  8
0
 62
     0
 10
97.8683
 20
63.8888
 30
0.0
 11
97.8683
 21
69.6874
 31
0.0
  0
LINE
  8
0
 62
     0
 10
97.8683
 20
69.6874
 30
0.0
 11
97.0689
 21
69.6874
 31
0.0
  0
LINE
  8
0
 62
     0
 10
97.0689
 20
69.6874
 30
0.0
 11
97.0689
 21
72.7879
 31
0.0
  0
LINE
  8
0
 62
     0
 10
97.0689
 20
72.7879
 30
0.0
 11
97.8683
 21
72.7879
 31
0.0
  0
LINE
  8
0
 62
     0
 10
97.8683
 20
72.7879
 30
0.0
 11
97.8683
 21
73.7884
 31
0.0
  0
LINE
  8
0
 62
     0
 10
97.8683
 20
73.7884
 30
0.0
 11
111.869
 21
73.7884
 31
0.0
  0
LINE
  8
0
 62
     0
 10
111.869
 20
73.7884
 30
0.0
 11
111.869
 21
72.7879
 31
0.0
  0
LINE
  8
0
 62
     0
 10
111.869
 20
72.7879
 30
0.0
 11
112.668
 21
72.7879
 31
0.0
  0
LINE
  8
0
 62
     0
 10
112.668
 20
72.7879
 30
0.0
 11
112.668
 21
69.6874
 31
0.0
  0
LINE
  8
0
 62
     0
 10
112.668
 20
69.6874
 30
0.0
 11
111.869
 21
69.6874
 31
0.0
  0
LINE
  8
0
 62
     0
 10
111.869
 20
69.6874
 30
0.0
 11
111.869
 21
63.8888
 31
0.0
  0
LINE
  8
0
 62
     0
 10
111.869
 20
63.8888
 30
0.0
 11
112.668
 21
63.8888
 31
0.0
  0
LINE
  8
0
 62
     0
 10
112.668
 20
63.8888
 30
0.0
 11
112.668
 21
60.7882
 31
0.0
  0
LINE
  8
0
 62
     0
 10
112.668
 20
60.7882
 30
0.0
 11
111.869
 21
60.7882
 31
0.0
  0
LINE
  8
0
 62
     0
 10
111.869
 20
22.688
 30
0.0
 11
111.869
 21
21.6876
 31
0.0
  0
LINE
  8
0
 62
     0
 10
111.869
 20
21.6876
 30
0.0
 11
97.8683
 21
21.6876
 31
0.0
  0
LINE
  8
0
 62
     0
 10
97.8683
 20
21.6876
 30
0.0
 11
97.8683
 21
22.688
 31
0.0
  0
LINE
  8
0
 62
     0
 10
97.8683
 20
22.688
 30
0.0
 11
97.0689
 21
22.688
 31
0.0
  0
LINE
  8
0
 62
     0
 10
97.0689
 20
22.688
 30
0.0
 11
97.0689
 21
25.7886
 31
0.0
  0
LINE
  8
0
 62
     0
 10
97.0689
 20
25.7886
 30
0.0
 11
97.8683
 21
25.7886
 31
0.0
  0
LINE
  8
0
 62
     0
 10
97.8683
 20
25.7886
 30
0.0
 11
97.8683
 21
31.5874
 31
0.0
  0
LINE
  8
0
 62
     0
 10
97.8683
 20
31.5874
 30
0.0
 11
97.0689
 21
31.5874
 31
0.0
  0
LINE
  8
0
 62
     0
 10
97.0689
 20
31.5874
 30
0.0
 11
97.0689
 21
34.688
 31
0.0
  0
LINE
  8
0
 62
     0
 10
97.0689
 20
34.688
 30
0.0
 11
97.8683
 21
34.688
 31
0.0
  0
LINE
  8
0
 62
     0
 10
97.8683
 20
34.688
 30
0.0
 11
97.8683
 21
35.6884
 31
0.0
  0
LINE
  8
0
 62
     0
 10
97.8683
 20
35.6884
 30
0.0
 11
111.869
 21
35.6884
 31
0.0
  0
LINE
  8
0
 62
     0
 10
111.869
 20
35.6884
 30
0.0
 11
111.869
 21
34.688
 31
0.0
  0
LINE
  8
0
 62
     0
 10
111.869
 20
34.688
 30
0.0
 11
112.668
 21
34.688
 31
0.0
  0
LINE
  8
0
 62
     0
 10
112.668
 20
34.688
 30
0.0
 11
112.668
 21
31.5874
 31
0.0
  0
LINE
  8
0
 62
     0
 10
112.668
 20
31.5874
 30
0.0
 11
111.869
 21
31.5874
 31
0.0
  0
LINE
  8
0
 62
     0
 10
111.869
 20
31.5874
 30
0.0
 11
111.869
 21
25.7886
 31
0.0
  0
LINE
  8
0
 62
     0
 10
111.869
 20
25.7886
 30
0.0
 11
112.668
 21
25.7886
 31
0.0
  0
LINE
  8
0
 62
     0
 10
112.668
 20
25.7886
 30
0.0
 11
112.668
 21
22.688
 31
0.0
  0
LINE
  8
0
 62
     0
 10
112.668
 20
22.688
 30
0.0
 11
111.869
 21
22.688
 31
0.0
  0
LINE
  8
0
 62
     0
 10
121.394
 20
41.7382
 30
0.0
 11
121.394
 21
40.7377
 31
0.0
  0
LINE
  8
0
 62
     0
 10
121.394
 20
40.7377
 30
0.0
 11
107.393
 21
40.7377
 31
0.0
  0
LINE
  8
0
 62
     0
 10
107.393
 20
40.7377
 30
0.0
 11
107.393
 21
41.7382
 31
0.0
  0
LINE
  8
0
 62
     0
 10
107.393
 20
41.7382
 30
0.0
 11
106.594
 21
41.7382
 31
0.0
  0
LINE
  8
0
 62
     0
 10
106.594
 20
41.7382
 30
0.0
 11
106.594
 21
44.8388
 31
0.0
  0
LINE
  8
0
 62
     0
 10
106.594
 20
44.8388
 30
0.0
 11
107.393
 21
44.8388
 31
0.0
  0
LINE
  8
0
 62
     0
 10
107.393
 20
44.8388
 30
0.0
 11
107.393
 21
50.6374
 31
0.0
  0
LINE
  8
0
 62
     0
 10
107.393
 20
50.6374
 30
0.0
 11
106.594
 21
50.6374
 31
0.0
  0
LINE
  8
0
 62
     0
 10
106.594
 20
50.6374
 30
0.0
 11
106.594
 21
53.7379
 31
0.0
  0
LINE
  8
0
 62
     0
 10
106.594
 20
53.7379
 30
0.0
 11
107.393
 21
53.7379
 31
0.0
  0
LINE
  8
0
 62
     0
 10
107.393
 20
53.7379
 30
0.0
 11
107.393
 21
54.7384
 31
0.0
  0
LINE
  8
0
 62
     0
 10
107.393
 20
54.7384
 30
0.0
 11
121.394
 21
54.7384
 31
0.0
  0
LINE
  8
0
 62
     0
 10
121.394
 20
54.7384
 30
0.0
 11
121.394
 21
53.7379
 31
0.0
  0
LINE
  8
0
 62
     0
 10
121.394
 20
53.7379
 30
0.0
 11
122.193
 21
53.7379
 31
0.0
  0
LINE
  8
0
 62
     0
 10
122.193
 20
53.7379
 30
0.0
 11
122.193
 21
50.6374
 31
0.0
  0
LINE
  8
0
 62
     0
 10
122.193
 20
50.6374
 30
0.0
 11
121.394
 21
50.6374
 31
0.0
  0
LINE
  8
0
 62
     0
 10
121.394
 20
50.6374
 30
0.0
 11
121.394
 21
44.8388
 31
0.0
  0
LINE
  8
0
 62
     0
 10
121.394
 20
44.8388
 30
0.0
 11
122.193
 21
44.8388
 31
0.0
  0
LINE
  8
0
 62
     0
 10
122.193
 20
44.8388
 30
0.0
 11
122.193
 21
41.7382
 31
0.0
  0
LINE
  8
0
 62
     0
 10
122.193
 20
41.7382
 30
0.0
 11
121.394
 21
41.7382
 31
0.0
  0
LINE
  8
0
 62
     0
 10
122.475
 20
9.13776
 30
0.0
 11
122.475
 21
2.8677
 31
0.0
  0
LINE
  8
0
 62
     0
 10
122.475
 20
2.8677
 30
0.0
 11
120.85
 21
2.8677
 31
0.0
  0
LINE
  8
0
 62
     0
 10
120.85
 20
2.8677
 30
0.0
 11
120.85
 21
1.66743
 31
0.0
  0
LINE
  8
0
 62
     0
 10
120.85
 20
1.66743
 30
0.0
 11
117.549
 21
1.66743
 31
0.0
  0
LINE
  8
0
 62
     0
 10
117.549
 20
1.66743
 30
0.0
 11
117.549
 21
2.8677
 31
0.0
  0
LINE
  8
0
 62
     0
 10
117.549
 20
2.8677
 30
0.0
 11
115.824
 21
2.8677
 31
0.0
  0
LINE
  8
0
 62
     0
 10
115.824
 20
2.8677
 30
0.0
 11
115.824
 21
3.66832
 31
0.0
  0
LINE
  8
0
 62
     0
 10
115.824
 20
3.66832
 30
0.0
 11
115.05
 21
3.66832
 31
0.0
  0
LINE
  8
0
 62
     0
 10
115.05
 20
3.66832
 30
0.0
 11
115.05
 21
3.63802
 31
0.0
  0
LINE
  8
0
 62
     0
 10
115.05
 20
3.63802
 30
0.0
 11
114.25
 21
3.63802
 31
0.0
  0
LINE
  8
0
 62
     0
 10
114.25
 20
3.63802
 30
0.0
 11
114.25
 21
2.63756
 31
0.0
  0
LINE
  8
0
 62
     0
 10
114.25
 20
2.63756
 30
0.0
 11
100.25
 21
2.63756
 31
0.0
  0
LINE
  8
0
 62
     0
 10
100.25
 20
2.63756
 30
0.0
 11
100.25
 21
3.63802
 31
0.0
  0
LINE
  8
0
 62
     0
 10
100.25
 20
3.63802
 30
0.0
 11
99.4502
 21
3.63802
 31
0.0
  0
LINE
  8
0
 62
     0
 10
99.4502
 20
3.63802
 30
0.0
 11
99.4502
 21
3.66832
 31
0.0
  0
LINE
  8
0
 62
     0
 10
99.4502
 20
3.66832
 30
0.0
 11
98.6744
 21
3.66832
 31
0.0
  0
LINE
  8
0
 62
     0
 10
98.6744
 20
3.66832
 30
0.0
 11
98.6744
 21
2.8677
 31
0.0
  0
LINE
  8
0
 62
     0
 10
98.6744
 20
2.8677
 30
0.0
 11
96.949
 21
2.8677
 31
0.0
  0
LINE
  8
0
 62
     0
 10
96.949
 20
2.8677
 30
0.0
 11
96.949
 21
1.66743
 31
0.0
  0
LINE
  8
0
 62
     0
 10
96.949
 20
1.66743
 30
0.0
 11
93.6502
 21
1.66743
 31
0.0
  0
LINE
  8
0
 62
     0
 10
93.6502
 20
1.66743
 30
0.0
 11
93.6502
 21
2.8677
 31
0.0
  0
LINE
  8
0
 62
     0
 10
93.6502
 20
2.8677
 30
0.0
 11
92.0253
 21
2.8677
 31
0.0
  0
LINE
  8
0
 62
     0
 10
92.0253
 20
2.8677
 30
0.0
 11
92.0253
 21
9.13776
 31
0.0
  0
LINE
  8
0
 62
     0
 10
92.0253
 20
9.13776
 30
0.0
 11
91.1504
 21
9.13776
 31
0.0
  0
LINE
  8
0
 62
     0
 10
91.1504
 20
9.13776
 30
0.0
 11
91.1504
 21
11.9379
 31
0.0
  0
LINE
  8
0
 62
     0
 10
91.1504
 20
11.9379
 30
0.0
 11
92.0253
 21
11.9379
 31
0.0
  0
LINE
  8
0
 62
     0
 10
92.0253
 20
11.9379
 30
0.0
 11
92.0253
 21
15.1681
 31
0.0
  0
LINE
  8
0
 62
     0
 10
92.0253
 20
15.1681
 30
0.0
 11
98.6744
 21
15.1681
 31
0.0
  0
LINE
  8
0
 62
     0
 10
98.6744
 20
15.1681
 30
0.0
 11
98.6744
 21
14.3674
 31
0.0
  0
LINE
  8
0
 62
     0
 10
98.6744
 20
14.3674
 30
0.0
 11
99.4502
 21
14.3674
 31
0.0
  0
LINE
  8
0
 62
     0
 10
99.4502
 20
14.3674
 30
0.0
 11
99.4502
 21
15.638
 31
0.0
  0
LINE
  8
0
 62
     0
 10
99.4502
 20
15.638
 30
0.0
 11
100.25
 21
15.638
 31
0.0
  0
LINE
  8
0
 62
     0
 10
100.25
 20
15.638
 30
0.0
 11
100.25
 21
16.6384
 31
0.0
  0
LINE
  8
0
 62
     0
 10
100.25
 20
16.6384
 30
0.0
 11
114.25
 21
16.6384
 31
0.0
  0
LINE
  8
0
 62
     0
 10
114.25
 20
16.6384
 30
0.0
 11
114.25
 21
15.638
 31
0.0
  0
LINE
  8
0
 62
     0
 10
114.25
 20
15.638
 30
0.0
 11
115.05
 21
15.638
 31
0.0
  0
LINE
  8
0
 62
     0
 10
115.05
 20
15.638
 30
0.0
 11
115.05
 21
14.3674
 31
0.0
  0
LINE
  8
0
 62
     0
 10
115.05
 20
14.3674
 30
0.0
 11
115.824
 21
14.3674
 31
0.0
  0
LINE
  8
0
 62
     0
 10
115.824
 20
14.3674
 30
0.0
 11
115.824
 21
15.1681
 31
0.0
  0
LINE
  8
0
 62
     0
 10
115.824
 20
15.1681
 30
0.0
 11
122.475
 21
15.1681
 31
0.0
  0
LINE
  8
0
 62
     0
 10
122.475
 20
15.1681
 30
0.0
 11
122.475
 21
11.9379
 31
0.0
  0
LINE
  8
0
 62
     0
 10
122.475
 20
11.9379
 30
0.0
 11
123.349
 21
11.9379
 31
0.0
  0
LINE
  8
0
 62
     0
 10
123.349
 20
11.9379
 30
0.0
 11
123.349
 21
9.13776
 31
0.0
  0
LINE
  8
0
 62
     0
 10
123.349
 20
9.13776
 30
0.0
 11
122.475
 21
9.13776
 31
0.0
  0
LINE
  8
0
 62
     0
 10
130.919
 20
60.7882
 30
0.0
 11
130.919
 21
59.7877
 31
0.0
  0
LINE
  8
0
 62
     0
 10
130.919
 20
59.7877
 30
0.0
 11
116.918
 21
59.7877
 31
0.0
  0
LINE
  8
0
 62
     0
 10
116.918
 20
59.7877
 30
0.0
 11
116.918
 21
60.7882
 31
0.0
  0
LINE
  8
0
 62
     0
 10
116.918
 20
60.7882
 30
0.0
 11
116.119
 21
60.7882
 31
0.0
  0
LINE
  8
0
 62
     0
 10
116.119
 20
60.7882
 30
0.0
 11
116.119
 21
63.8888
 31
0.0
  0
LINE
  8
0
 62
     0
 10
116.119
 20
63.8888
 30
0.0
 11
116.918
 21
63.8888
 31
0.0
  0
LINE
  8
0
 62
     0
 10
116.918
 20
63.8888
 30
0.0
 11
116.918
 21
69.6874
 31
0.0
  0
LINE
  8
0
 62
     0
 10
116.918
 20
69.6874
 30
0.0
 11
116.119
 21
69.6874
 31
0.0
  0
LINE
  8
0
 62
     0
 10
116.119
 20
69.6874
 30
0.0
 11
116.119
 21
72.7879
 31
0.0
  0
LINE
  8
0
 62
     0
 10
116.119
 20
72.7879
 30
0.0
 11
116.918
 21
72.7879
 31
0.0
  0
LINE
  8
0
 62
     0
 10
116.918
 20
72.7879
 30
0.0
 11
116.918
 21
73.7884
 31
0.0
  0
LINE
  8
0
 62
     0
 10
116.918
 20
73.7884
 30
0.0
 11
130.919
 21
73.7884
 31
0.0
  0
LINE
  8
0
 62
     0
 10
130.919
 20
73.7884
 30
0.0
 11
130.919
 21
72.7879
 31
0.0
  0
LINE
  8
0
 62
     0
 10
130.919
 20
72.7879
 30
0.0
 11
131.718
 21
72.7879
 31
0.0
  0
LINE
  8
0
 62
     0
 10
131.718
 20
72.7879
 30
0.0
 11
131.718
 21
69.6874
 31
0.0
  0
LINE
  8
0
 62
     0
 10
131.718
 20
69.6874
 30
0.0
 11
130.919
 21
69.6874
 31
0.0
  0
LINE
  8
0
 62
     0
 10
130.919
 20
69.6874
 30
0.0
 11
130.919
 21
63.8888
 31
0.0
  0
LINE
  8
0
 62
     0
 10
130.919
 20
63.8888
 30
0.0
 11
131.718
 21
63.8888
 31
0.0
  0
LINE
  8
0
 62
     0
 10
131.718
 20
63.8888
 30
0.0
 11
131.718
 21
60.7882
 31
0.0
  0
LINE
  8
0
 62
     0
 10
131.718
 20
60.7882
 30
0.0
 11
130.919
 21
60.7882
 31
0.0
  0
LINE
  8
0
 62
     0
 10
130.919
 20
22.688
 30
0.0
 11
130.919
 21
21.6876
 31
0.0
  0
LINE
  8
0
 62
     0
 10
130.919
 20
21.6876
 30
0.0
 11
116.918
 21
21.6876
 31
0.0
  0
LINE
  8
0
 62
     0
 10
116.918
 20
21.6876
 30
0.0
 11
116.918
 21
22.688
 31
0.0
  0
LINE
  8
0
 62
     0
 10
116.918
 20
22.688
 30
0.0
 11
116.119
 21
22.688
 31
0.0
  0
LINE
  8
0
 62
     0
 10
116.119
 20
22.688
 30
0.0
 11
116.119
 21
25.7886
 31
0.0
  0
LINE
  8
0
 62
     0
 10
116.119
 20
25.7886
 30
0.0
 11
116.918
 21
25.7886
 31
0.0
  0
LINE
  8
0
 62
     0
 10
116.918
 20
25.7886
 30
0.0
 11
116.918
 21
31.5874
 31
0.0
  0
LINE
  8
0
 62
     0
 10
116.918
 20
31.5874
 30
0.0
 11
116.119
 21
31.5874
 31
0.0
  0
LINE
  8
0
 62
     0
 10
116.119
 20
31.5874
 30
0.0
 11
116.119
 21
34.688
 31
0.0
  0
LINE
  8
0
 62
     0
 10
116.119
 20
34.688
 30
0.0
 11
116.918
 21
34.688
 31
0.0
  0
LINE
  8
0
 62
     0
 10
116.918
 20
34.688
 30
0.0
 11
116.918
 21
35.6884
 31
0.0
  0
LINE
  8
0
 62
     0
 10
116.918
 20
35.6884
 30
0.0
 11
130.919
 21
35.6884
 31
0.0
  0
LINE
  8
0
 62
     0
 10
130.919
 20
35.6884
 30
0.0
 11
130.919
 21
34.688
 31
0.0
  0
LINE
  8
0
 62
     0
 10
130.919
 20
34.688
 30
0.0
 11
131.718
 21
34.688
 31
0.0
  0
LINE
  8
0
 62
     0
 10
131.718
 20
34.688
 30
0.0
 11
131.718
 21
31.5874
 31
0.0
  0
LINE
  8
0
 62
     0
 10
131.718
 20
31.5874
 30
0.0
 11
130.919
 21
31.5874
 31
0.0
  0
LINE
  8
0
 62
     0
 10
130.919
 20
31.5874
 30
0.0
 11
130.919
 21
25.7886
 31
0.0
  0
LINE
  8
0
 62
     0
 10
130.919
 20
25.7886
 30
0.0
 11
131.718
 21
25.7886
 31
0.0
  0
LINE
  8
0
 62
     0
 10
131.718
 20
25.7886
 30
0.0
 11
131.718
 21
22.688
 31
0.0
  0
LINE
  8
0
 62
     0
 10
131.718
 20
22.688
 30
0.0
 11
130.919
 21
22.688
 31
0.0
  0
LINE
  8
0
 62
     0
 10
140.444
 20
41.7382
 30
0.0
 11
140.444
 21
40.7377
 31
0.0
  0
LINE
  8
0
 62
     0
 10
140.444
 20
40.7377
 30
0.0
 11
126.443
 21
40.7377
 31
0.0
  0
LINE
  8
0
 62
     0
 10
126.443
 20
40.7377
 30
0.0
 11
126.443
 21
41.7382
 31
0.0
  0
LINE
  8
0
 62
     0
 10
126.443
 20
41.7382
 30
0.0
 11
125.644
 21
41.7382
 31
0.0
  0
LINE
  8
0
 62
     0
 10
125.644
 20
41.7382
 30
0.0
 11
125.644
 21
44.8388
 31
0.0
  0
LINE
  8
0
 62
     0
 10
125.644
 20
44.8388
 30
0.0
 11
126.443
 21
44.8388
 31
0.0
  0
LINE
  8
0
 62
     0
 10
126.443
 20
44.8388
 30
0.0
 11
126.443
 21
50.6374
 31
0.0
  0
LINE
  8
0
 62
     0
 10
126.443
 20
50.6374
 30
0.0
 11
125.644
 21
50.6374
 31
0.0
  0
LINE
  8
0
 62
     0
 10
125.644
 20
50.6374
 30
0.0
 11
125.644
 21
53.7379
 31
0.0
  0
LINE
  8
0
 62
     0
 10
125.644
 20
53.7379
 30
0.0
 11
126.443
 21
53.7379
 31
0.0
  0
LINE
  8
0
 62
     0
 10
126.443
 20
53.7379
 30
0.0
 11
126.443
 21
54.7384
 31
0.0
  0
LINE
  8
0
 62
     0
 10
126.443
 20
54.7384
 30
0.0
 11
140.444
 21
54.7384
 31
0.0
  0
LINE
  8
0
 62
     0
 10
140.444
 20
54.7384
 30
0.0
 11
140.444
 21
53.7379
 31
0.0
  0
LINE
  8
0
 62
     0
 10
140.444
 20
53.7379
 30
0.0
 11
141.243
 21
53.7379
 31
0.0
  0
LINE
  8
0
 62
     0
 10
141.243
 20
53.7379
 30
0.0
 11
141.243
 21
50.6374
 31
0.0
  0
LINE
  8
0
 62
     0
 10
141.243
 20
50.6374
 30
0.0
 11
140.444
 21
50.6374
 31
0.0
  0
LINE
  8
0
 62
     0
 10
140.444
 20
50.6374
 30
0.0
 11
140.444
 21
44.8388
 31
0.0
  0
LINE
  8
0
 62
     0
 10
140.444
 20
44.8388
 30
0.0
 11
141.243
 21
44.8388
 31
0.0
  0
LINE
  8
0
 62
     0
 10
141.243
 20
44.8388
 30
0.0
 11
141.243
 21
41.7382
 31
0.0
  0
LINE
  8
0
 62
     0
 10
141.243
 20
41.7382
 30
0.0
 11
140.444
 21
41.7382
 31
0.0
  0
LINE
  8
0
 62
     0
 10
149.969
 20
60.7882
 30
0.0
 11
149.969
 21
59.7877
 31
0.0
  0
LINE
  8
0
 62
     0
 10
149.969
 20
59.7877
 30
0.0
 11
135.968
 21
59.7877
 31
0.0
  0
LINE
  8
0
 62
     0
 10
135.968
 20
59.7877
 30
0.0
 11
135.968
 21
60.7882
 31
0.0
  0
LINE
  8
0
 62
     0
 10
135.968
 20
60.7882
 30
0.0
 11
135.169
 21
60.7882
 31
0.0
  0
LINE
  8
0
 62
     0
 10
135.169
 20
60.7882
 30
0.0
 11
135.169
 21
63.8888
 31
0.0
  0
LINE
  8
0
 62
     0
 10
135.169
 20
63.8888
 30
0.0
 11
135.968
 21
63.8888
 31
0.0
  0
LINE
  8
0
 62
     0
 10
135.968
 20
63.8888
 30
0.0
 11
135.968
 21
69.6874
 31
0.0
  0
LINE
  8
0
 62
     0
 10
135.968
 20
69.6874
 30
0.0
 11
135.169
 21
69.6874
 31
0.0
  0
LINE
  8
0
 62
     0
 10
135.169
 20
69.6874
 30
0.0
 11
135.169
 21
72.7879
 31
0.0
  0
LINE
  8
0
 62
     0
 10
135.169
 20
72.7879
 30
0.0
 11
135.968
 21
72.7879
 31
0.0
  0
LINE
  8
0
 62
     0
 10
135.968
 20
72.7879
 30
0.0
 11
135.968
 21
73.7884
 31
0.0
  0
LINE
  8
0
 62
     0
 10
135.968
 20
73.7884
 30
0.0
 11
149.969
 21
73.7884
 31
0.0
  0
LINE
  8
0
 62
     0
 10
149.969
 20
73.7884
 30
0.0
 11
149.969
 21
72.7879
 31
0.0
  0
LINE
  8
0
 62
     0
 10
149.969
 20
72.7879
 30
0.0
 11
150.768
 21
72.7879
 31
0.0
  0
LINE
  8
0
 62
     0
 10
150.768
 20
72.7879
 30
0.0
 11
150.768
 21
69.6874
 31
0.0
  0
LINE
  8
0
 62
     0
 10
150.768
 20
69.6874
 30
0.0
 11
149.969
 21
69.6874
 31
0.0
  0
LINE
  8
0
 62
     0
 10
149.969
 20
69.6874
 30
0.0
 11
149.969
 21
63.8888
 31
0.0
  0
LINE
  8
0
 62
     0
 10
149.969
 20
63.8888
 30
0.0
 11
150.768
 21
63.8888
 31
0.0
  0
LINE
  8
0
 62
     0
 10
150.768
 20
63.8888
 30
0.0
 11
150.768
 21
60.7882
 31
0.0
  0
LINE
  8
0
 62
     0
 10
150.768
 20
60.7882
 30
0.0
 11
149.969
 21
60.7882
 31
0.0
  0
LINE
  8
0
 62
     0
 10
149.969
 20
22.688
 30
0.0
 11
149.969
 21
21.6876
 31
0.0
  0
LINE
  8
0
 62
     0
 10
149.969
 20
21.6876
 30
0.0
 11
135.968
 21
21.6876
 31
0.0
  0
LINE
  8
0
 62
     0
 10
135.968
 20
21.6876
 30
0.0
 11
135.968
 21
22.688
 31
0.0
  0
LINE
  8
0
 62
     0
 10
135.968
 20
22.688
 30
0.0
 11
135.169
 21
22.688
 31
0.0
  0
LINE
  8
0
 62
     0
 10
135.169
 20
22.688
 30
0.0
 11
135.169
 21
25.7886
 31
0.0
  0
LINE
  8
0
 62
     0
 10
135.169
 20
25.7886
 30
0.0
 11
135.968
 21
25.7886
 31
0.0
  0
LINE
  8
0
 62
     0
 10
135.968
 20
25.7886
 30
0.0
 11
135.968
 21
31.5874
 31
0.0
  0
LINE
  8
0
 62
     0
 10
135.968
 20
31.5874
 30
0.0
 11
135.169
 21
31.5874
 31
0.0
  0
LINE
  8
0
 62
     0
 10
135.169
 20
31.5874
 30
0.0
 11
135.169
 21
34.688
 31
0.0
  0
LINE
  8
0
 62
     0
 10
135.169
 20
34.688
 30
0.0
 11
135.968
 21
34.688
 31
0.0
  0
LINE
  8
0
 62
     0
 10
135.968
 20
34.688
 30
0.0
 11
135.968
 21
35.6884
 31
0.0
  0
LINE
  8
0
 62
     0
 10
135.968
 20
35.6884
 30
0.0
 11
149.969
 21
35.6884
 31
0.0
  0
LINE
  8
0
 62
     0
 10
149.969
 20
35.6884
 30
0.0
 11
149.969
 21
34.688
 31
0.0
  0
LINE
  8
0
 62
     0
 10
149.969
 20
34.688
 30
0.0
 11
150.768
 21
34.688
 31
0.0
  0
LINE
  8
0
 62
     0
 10
150.768
 20
34.688
 30
0.0
 11
150.768
 21
31.5874
 31
0.0
  0
LINE
  8
0
 62
     0
 10
150.768
 20
31.5874
 30
0.0
 11
149.969
 21
31.5874
 31
0.0
  0
LINE
  8
0
 62
     0
 10
149.969
 20
31.5874
 30
0.0
 11
149.969
 21
25.7886
 31
0.0
  0
LINE
  8
0
 62
     0
 10
149.969
 20
25.7886
 30
0.0
 11
150.768
 21
25.7886
 31
0.0
  0
LINE
  8
0
 62
     0
 10
150.768
 20
25.7886
 30
0.0
 11
150.768
 21
22.688
 31
0.0
  0
LINE
  8
0
 62
     0
 10
150.768
 20
22.688
 30
0.0
 11
149.969
 21
22.688
 31
0.0
  0
LINE
  8
0
 62
     0
 10
149.969
 20
3.63802
 30
0.0
 11
149.969
 21
2.63756
 31
0.0
  0
LINE
  8
0
 62
     0
 10
149.969
 20
2.63756
 30
0.0
 11
135.968
 21
2.63756
 31
0.0
  0
LINE
  8
0
 62
     0
 10
135.968
 20
2.63756
 30
0.0
 11
135.968
 21
3.63802
 31
0.0
  0
LINE
  8
0
 62
     0
 10
135.968
 20
3.63802
 30
0.0
 11
135.169
 21
3.63802
 31
0.0
  0
LINE
  8
0
 62
     0
 10
135.169
 20
3.63802
 30
0.0
 11
135.169
 21
6.73862
 31
0.0
  0
LINE
  8
0
 62
     0
 10
135.169
 20
6.73862
 30
0.0
 11
135.968
 21
6.73862
 31
0.0
  0
LINE
  8
0
 62
     0
 10
135.968
 20
6.73862
 30
0.0
 11
135.968
 21
12.5374
 31
0.0
  0
LINE
  8
0
 62
     0
 10
135.968
 20
12.5374
 30
0.0
 11
135.169
 21
12.5374
 31
0.0
  0
LINE
  8
0
 62
     0
 10
135.169
 20
12.5374
 30
0.0
 11
135.169
 21
15.638
 31
0.0
  0
LINE
  8
0
 62
     0
 10
135.169
 20
15.638
 30
0.0
 11
135.968
 21
15.638
 31
0.0
  0
LINE
  8
0
 62
     0
 10
135.968
 20
15.638
 30
0.0
 11
135.968
 21
16.6384
 31
0.0
  0
LINE
  8
0
 62
     0
 10
135.968
 20
16.6384
 30
0.0
 11
149.969
 21
16.6384
 31
0.0
  0
LINE
  8
0
 62
     0
 10
149.969
 20
16.6384
 30
0.0
 11
149.969
 21
15.638
 31
0.0
  0
LINE
  8
0
 62
     0
 10
149.969
 20
15.638
 30
0.0
 11
150.768
 21
15.638
 31
0.0
  0
LINE
  8
0
 62
     0
 10
150.768
 20
15.638
 30
0.0
 11
150.768
 21
12.5374
 31
0.0
  0
LINE
  8
0
 62
     0
 10
150.768
 20
12.5374
 30
0.0
 11
149.969
 21
12.5374
 31
0.0
  0
LINE
  8
0
 62
     0
 10
149.969
 20
12.5374
 30
0.0
 11
149.969
 21
6.73862
 31
0.0
  0
LINE
  8
0
 62
     0
 10
149.969
 20
6.73862
 30
0.0
 11
150.768
 21
6.73862
 31
0.0
  0
LINE
  8
0
 62
     0
 10
150.768
 20
6.73862
 30
0.0
 11
150.768
 21
3.63802
 31
0.0
  0
LINE
  8
0
 62
     0
 10
150.768
 20
3.63802
 30
0.0
 11
149.969
 21
3.63802
 31
0.0
  0
LINE
  8
0
 62
     0
 10
159.494
 20
41.7382
 30
0.0
 11
159.494
 21
40.7377
 31
0.0
  0
LINE
  8
0
 62
     0
 10
159.494
 20
40.7377
 30
0.0
 11
145.493
 21
40.7377
 31
0.0
  0
LINE
  8
0
 62
     0
 10
145.493
 20
40.7377
 30
0.0
 11
145.493
 21
41.7382
 31
0.0
  0
LINE
  8
0
 62
     0
 10
145.493
 20
41.7382
 30
0.0
 11
144.694
 21
41.7382
 31
0.0
  0
LINE
  8
0
 62
     0
 10
144.694
 20
41.7382
 30
0.0
 11
144.694
 21
44.8388
 31
0.0
  0
LINE
  8
0
 62
     0
 10
144.694
 20
44.8388
 30
0.0
 11
145.493
 21
44.8388
 31
0.0
  0
LINE
  8
0
 62
     0
 10
145.493
 20
44.8388
 30
0.0
 11
145.493
 21
50.6374
 31
0.0
  0
LINE
  8
0
 62
     0
 10
145.493
 20
50.6374
 30
0.0
 11
144.694
 21
50.6374
 31
0.0
  0
LINE
  8
0
 62
     0
 10
144.694
 20
50.6374
 30
0.0
 11
144.694
 21
53.7379
 31
0.0
  0
LINE
  8
0
 62
     0
 10
144.694
 20
53.7379
 30
0.0
 11
145.493
 21
53.7379
 31
0.0
  0
LINE
  8
0
 62
     0
 10
145.493
 20
53.7379
 30
0.0
 11
145.493
 21
54.7384
 31
0.0
  0
LINE
  8
0
 62
     0
 10
145.493
 20
54.7384
 30
0.0
 11
159.494
 21
54.7384
 31
0.0
  0
LINE
  8
0
 62
     0
 10
159.494
 20
54.7384
 30
0.0
 11
159.494
 21
53.7379
 31
0.0
  0
LINE
  8
0
 62
     0
 10
159.494
 20
53.7379
 30
0.0
 11
160.293
 21
53.7379
 31
0.0
  0
LINE
  8
0
 62
     0
 10
160.293
 20
53.7379
 30
0.0
 11
160.293
 21
50.6374
 31
0.0
  0
LINE
  8
0
 62
     0
 10
160.293
 20
50.6374
 30
0.0
 11
159.494
 21
50.6374
 31
0.0
  0
LINE
  8
0
 62
     0
 10
159.494
 20
50.6374
 30
0.0
 11
159.494
 21
44.8388
 31
0.0
  0
LINE
  8
0
 62
     0
 10
159.494
 20
44.8388
 30
0.0
 11
160.293
 21
44.8388
 31
0.0
  0
LINE
  8
0
 62
     0
 10
160.293
 20
44.8388
 30
0.0
 11
160.293
 21
41.7382
 31
0.0
  0
LINE
  8
0
 62
     0
 10
160.293
 20
41.7382
 30
0.0
 11
159.494
 21
41.7382
 31
0.0
  0
LINE
  8
0
 62
     0
 10
169.019
 20
60.7882
 30
0.0
 11
169.019
 21
59.7877
 31
0.0
  0
LINE
  8
0
 62
     0
 10
169.019
 20
59.7877
 30
0.0
 11
155.018
 21
59.7877
 31
0.0
  0
LINE
  8
0
 62
     0
 10
155.018
 20
59.7877
 30
0.0
 11
155.018
 21
60.7882
 31
0.0
  0
LINE
  8
0
 62
     0
 10
155.018
 20
60.7882
 30
0.0
 11
154.219
 21
60.7882
 31
0.0
  0
LINE
  8
0
 62
     0
 10
154.219
 20
60.7882
 30
0.0
 11
154.219
 21
63.8888
 31
0.0
  0
LINE
  8
0
 62
     0
 10
154.219
 20
63.8888
 30
0.0
 11
155.018
 21
63.8888
 31
0.0
  0
LINE
  8
0
 62
     0
 10
155.018
 20
63.8888
 30
0.0
 11
155.018
 21
69.6874
 31
0.0
  0
LINE
  8
0
 62
     0
 10
155.018
 20
69.6874
 30
0.0
 11
154.219
 21
69.6874
 31
0.0
  0
LINE
  8
0
 62
     0
 10
154.219
 20
69.6874
 30
0.0
 11
154.219
 21
72.7879
 31
0.0
  0
LINE
  8
0
 62
     0
 10
154.219
 20
72.7879
 30
0.0
 11
155.018
 21
72.7879
 31
0.0
  0
LINE
  8
0
 62
     0
 10
155.018
 20
72.7879
 30
0.0
 11
155.018
 21
73.7884
 31
0.0
  0
LINE
  8
0
 62
     0
 10
155.018
 20
73.7884
 30
0.0
 11
169.019
 21
73.7884
 31
0.0
  0
LINE
  8
0
 62
     0
 10
169.019
 20
73.7884
 30
0.0
 11
169.019
 21
72.7879
 31
0.0
  0
LINE
  8
0
 62
     0
 10
169.019
 20
72.7879
 30
0.0
 11
169.818
 21
72.7879
 31
0.0
  0
LINE
  8
0
 62
     0
 10
169.818
 20
72.7879
 30
0.0
 11
169.818
 21
69.6874
 31
0.0
  0
LINE
  8
0
 62
     0
 10
169.818
 20
69.6874
 30
0.0
 11
169.019
 21
69.6874
 31
0.0
  0
LINE
  8
0
 62
     0
 10
169.019
 20
69.6874
 30
0.0
 11
169.019
 21
63.8888
 31
0.0
  0
LINE
  8
0
 62
     0
 10
169.019
 20
63.8888
 30
0.0
 11
169.818
 21
63.8888
 31
0.0
  0
LINE
  8
0
 62
     0
 10
169.818
 20
63.8888
 30
0.0
 11
169.818
 21
60.7882
 31
0.0
  0
LINE
  8
0
 62
     0
 10
169.818
 20
60.7882
 30
0.0
 11
169.019
 21
60.7882
 31
0.0
  0
LINE
  8
0
 62
     0
 10
169.019
 20
22.688
 30
0.0
 11
169.019
 21
21.6876
 31
0.0
  0
LINE
  8
0
 62
     0
 10
169.019
 20
21.6876
 30
0.0
 11
155.018
 21
21.6876
 31
0.0
  0
LINE
  8
0
 62
     0
 10
155.018
 20
21.6876
 30
0.0
 11
155.018
 21
22.688
 31
0.0
  0
LINE
  8
0
 62
     0
 10
155.018
 20
22.688
 30
0.0
 11
154.219
 21
22.688
 31
0.0
  0
LINE
  8
0
 62
     0
 10
154.219
 20
22.688
 30
0.0
 11
154.219
 21
25.7886
 31
0.0
  0
LINE
  8
0
 62
     0
 10
154.219
 20
25.7886
 30
0.0
 11
155.018
 21
25.7886
 31
0.0
  0
LINE
  8
0
 62
     0
 10
155.018
 20
25.7886
 30
0.0
 11
155.018
 21
31.5874
 31
0.0
  0
LINE
  8
0
 62
     0
 10
155.018
 20
31.5874
 30
0.0
 11
154.219
 21
31.5874
 31
0.0
  0
LINE
  8
0
 62
     0
 10
154.219
 20
31.5874
 30
0.0
 11
154.219
 21
34.688
 31
0.0
  0
LINE
  8
0
 62
     0
 10
154.219
 20
34.688
 30
0.0
 11
155.018
 21
34.688
 31
0.0
  0
LINE
  8
0
 62
     0
 10
155.018
 20
34.688
 30
0.0
 11
155.018
 21
35.6884
 31
0.0
  0
LINE
  8
0
 62
     0
 10
155.018
 20
35.6884
 30
0.0
 11
169.019
 21
35.6884
 31
0.0
  0
LINE
  8
0
 62
     0
 10
169.019
 20
35.6884
 30
0.0
 11
169.019
 21
34.688
 31
0.0
  0
LINE
  8
0
 62
     0
 10
169.019
 20
34.688
 30
0.0
 11
169.818
 21
34.688
 31
0.0
  0
LINE
  8
0
 62
     0
 10
169.818
 20
34.688
 30
0.0
 11
169.818
 21
31.5874
 31
0.0
  0
LINE
  8
0
 62
     0
 10
169.818
 20
31.5874
 30
0.0
 11
169.019
 21
31.5874
 31
0.0
  0
LINE
  8
0
 62
     0
 10
169.019
 20
31.5874
 30
0.0
 11
169.019
 21
25.7886
 31
0.0
  0
LINE
  8
0
 62
     0
 10
169.019
 20
25.7886
 30
0.0
 11
169.818
 21
25.7886
 31
0.0
  0
LINE
  8
0
 62
     0
 10
169.818
 20
25.7886
 30
0.0
 11
169.818
 21
22.688
 31
0.0
  0
LINE
  8
0
 62
     0
 10
169.818
 20
22.688
 30
0.0
 11
169.019
 21
22.688
 31
0.0
  0
LINE
  8
0
 62
     0
 10
169.019
 20
3.63802
 30
0.0
 11
169.019
 21
2.63756
 31
0.0
  0
LINE
  8
0
 62
     0
 10
169.019
 20
2.63756
 30
0.0
 11
155.018
 21
2.63756
 31
0.0
  0
LINE
  8
0
 62
     0
 10
155.018
 20
2.63756
 30
0.0
 11
155.018
 21
3.63802
 31
0.0
  0
LINE
  8
0
 62
     0
 10
155.018
 20
3.63802
 30
0.0
 11
154.219
 21
3.63802
 31
0.0
  0
LINE
  8
0
 62
     0
 10
154.219
 20
3.63802
 30
0.0
 11
154.219
 21
6.73862
 31
0.0
  0
LINE
  8
0
 62
     0
 10
154.219
 20
6.73862
 30
0.0
 11
155.018
 21
6.73862
 31
0.0
  0
LINE
  8
0
 62
     0
 10
155.018
 20
6.73862
 30
0.0
 11
155.018
 21
12.5374
 31
0.0
  0
LINE
  8
0
 62
     0
 10
155.018
 20
12.5374
 30
0.0
 11
154.219
 21
12.5374
 31
0.0
  0
LINE
  8
0
 62
     0
 10
154.219
 20
12.5374
 30
0.0
 11
154.219
 21
15.638
 31
0.0
  0
LINE
  8
0
 62
     0
 10
154.219
 20
15.638
 30
0.0
 11
155.018
 21
15.638
 31
0.0
  0
LINE
  8
0
 62
     0
 10
155.018
 20
15.638
 30
0.0
 11
155.018
 21
16.6384
 31
0.0
  0
LINE
  8
0
 62
     0
 10
155.018
 20
16.6384
 30
0.0
 11
169.019
 21
16.6384
 31
0.0
  0
LINE
  8
0
 62
     0
 10
169.019
 20
16.6384
 30
0.0
 11
169.019
 21
15.638
 31
0.0
  0
LINE
  8
0
 62
     0
 10
169.019
 20
15.638
 30
0.0
 11
169.818
 21
15.638
 31
0.0
  0
LINE
  8
0
 62
     0
 10
169.818
 20
15.638
 30
0.0
 11
169.818
 21
12.5374
 31
0.0
  0
LINE
  8
0
 62
     0
 10
169.818
 20
12.5374
 30
0.0
 11
169.019
 21
12.5374
 31
0.0
  0
LINE
  8
0
 62
     0
 10
169.019
 20
12.5374
 30
0.0
 11
169.019
 21
6.73862
 31
0.0
  0
LINE
  8
0
 62
     0
 10
169.019
 20
6.73862
 30
0.0
 11
169.818
 21
6.73862
 31
0.0
  0
LINE
  8
0
 62
     0
 10
169.818
 20
6.73862
 30
0.0
 11
169.818
 21
3.63802
 31
0.0
  0
LINE
  8
0
 62
     0
 10
169.818
 20
3.63802
 30
0.0
 11
169.019
 21
3.63802
 31
0.0
  0
LINE
  8
0
 62
     0
 10
178.544
 20
41.7382
 30
0.0
 11
178.544
 21
40.7377
 31
0.0
  0
LINE
  8
0
 62
     0
 10
178.544
 20
40.7377
 30
0.0
 11
164.543
 21
40.7377
 31
0.0
  0
LINE
  8
0
 62
     0
 10
164.543
 20
40.7377
 30
0.0
 11
164.543
 21
41.7382
 31
0.0
  0
LINE
  8
0
 62
     0
 10
164.543
 20
41.7382
 30
0.0
 11
163.744
 21
41.7382
 31
0.0
  0
LINE
  8
0
 62
     0
 10
163.744
 20
41.7382
 30
0.0
 11
163.744
 21
44.8388
 31
0.0
  0
LINE
  8
0
 62
     0
 10
163.744
 20
44.8388
 30
0.0
 11
164.543
 21
44.8388
 31
0.0
  0
LINE
  8
0
 62
     0
 10
164.543
 20
44.8388
 30
0.0
 11
164.543
 21
50.6374
 31
0.0
  0
LINE
  8
0
 62
     0
 10
164.543
 20
50.6374
 30
0.0
 11
163.744
 21
50.6374
 31
0.0
  0
LINE
  8
0
 62
     0
 10
163.744
 20
50.6374
 30
0.0
 11
163.744
 21
53.7379
 31
0.0
  0
LINE
  8
0
 62
     0
 10
163.744
 20
53.7379
 30
0.0
 11
164.543
 21
53.7379
 31
0.0
  0
LINE
  8
0
 62
     0
 10
164.543
 20
53.7379
 30
0.0
 11
164.543
 21
54.7384
 31
0.0
  0
LINE
  8
0
 62
     0
 10
164.543
 20
54.7384
 30
0.0
 11
178.544
 21
54.7384
 31
0.0
  0
LINE
  8
0
 62
     0
 10
178.544
 20
54.7384
 30
0.0
 11
178.544
 21
53.7379
 31
0.0
  0
LINE
  8
0
 62
     0
 10
178.544
 20
53.7379
 30
0.0
 11
179.343
 21
53.7379
 31
0.0
  0
LINE
  8
0
 62
     0
 10
179.343
 20
53.7379
 30
0.0
 11
179.343
 21
50.6374
 31
0.0
  0
LINE
  8
0
 62
     0
 10
179.343
 20
50.6374
 30
0.0
 11
178.544
 21
50.6374
 31
0.0
  0
LINE
  8
0
 62
     0
 10
178.544
 20
50.6374
 30
0.0
 11
178.544
 21
44.8388
 31
0.0
  0
LINE
  8
0
 62
     0
 10
178.544
 20
44.8388
 30
0.0
 11
179.343
 21
44.8388
 31
0.0
  0
LINE
  8
0
 62
     0
 10
179.343
 20
44.8388
 30
0.0
 11
179.343
 21
41.7382
 31
0.0
  0
LINE
  8
0
 62
     0
 10
179.343
 20
41.7382
 30
0.0
 11
178.544
 21
41.7382
 31
0.0
  0
LINE
  8
0
 62
     0
 10
188.069
 20
60.7882
 30
0.0
 11
188.069
 21
59.7877
 31
0.0
  0
LINE
  8
0
 62
     0
 10
188.069
 20
59.7877
 30
0.0
 11
174.068
 21
59.7877
 31
0.0
  0
LINE
  8
0
 62
     0
 10
174.068
 20
59.7877
 30
0.0
 11
174.068
 21
60.7882
 31
0.0
  0
LINE
  8
0
 62
     0
 10
174.068
 20
60.7882
 30
0.0
 11
173.269
 21
60.7882
 31
0.0
  0
LINE
  8
0
 62
     0
 10
173.269
 20
60.7882
 30
0.0
 11
173.269
 21
63.8888
 31
0.0
  0
LINE
  8
0
 62
     0
 10
173.269
 20
63.8888
 30
0.0
 11
174.068
 21
63.8888
 31
0.0
  0
LINE
  8
0
 62
     0
 10
174.068
 20
63.8888
 30
0.0
 11
174.068
 21
69.6874
 31
0.0
  0
LINE
  8
0
 62
     0
 10
174.068
 20
69.6874
 30
0.0
 11
173.269
 21
69.6874
 31
0.0
  0
LINE
  8
0
 62
     0
 10
173.269
 20
69.6874
 30
0.0
 11
173.269
 21
72.7879
 31
0.0
  0
LINE
  8
0
 62
     0
 10
173.269
 20
72.7879
 30
0.0
 11
174.068
 21
72.7879
 31
0.0
  0
LINE
  8
0
 62
     0
 10
174.068
 20
72.7879
 30
0.0
 11
174.068
 21
73.7884
 31
0.0
  0
LINE
  8
0
 62
     0
 10
174.068
 20
73.7884
 30
0.0
 11
188.069
 21
73.7884
 31
0.0
  0
LINE
  8
0
 62
     0
 10
188.069
 20
73.7884
 30
0.0
 11
188.069
 21
72.7879
 31
0.0
  0
LINE
  8
0
 62
     0
 10
188.069
 20
72.7879
 30
0.0
 11
188.868
 21
72.7879
 31
0.0
  0
LINE
  8
0
 62
     0
 10
188.868
 20
72.7879
 30
0.0
 11
188.868
 21
69.6874
 31
0.0
  0
LINE
  8
0
 62
     0
 10
188.868
 20
69.6874
 30
0.0
 11
188.069
 21
69.6874
 31
0.0
  0
LINE
  8
0
 62
     0
 10
188.069
 20
69.6874
 30
0.0
 11
188.069
 21
63.8888
 31
0.0
  0
LINE
  8
0
 62
     0
 10
188.069
 20
63.8888
 30
0.0
 11
188.868
 21
63.8888
 31
0.0
  0
LINE
  8
0
 62
     0
 10
188.868
 20
63.8888
 30
0.0
 11
188.868
 21
60.7882
 31
0.0
  0
LINE
  8
0
 62
     0
 10
188.868
 20
60.7882
 30
0.0
 11
188.069
 21
60.7882
 31
0.0
  0
LINE
  8
0
 62
     0
 10
188.069
 20
22.688
 30
0.0
 11
188.069
 21
21.6876
 31
0.0
  0
LINE
  8
0
 62
     0
 10
188.069
 20
21.6876
 30
0.0
 11
174.068
 21
21.6876
 31
0.0
  0
LINE
  8
0
 62
     0
 10
174.068
 20
21.6876
 30
0.0
 11
174.068
 21
22.688
 31
0.0
  0
LINE
  8
0
 62
     0
 10
174.068
 20
22.688
 30
0.0
 11
173.269
 21
22.688
 31
0.0
  0
LINE
  8
0
 62
     0
 10
173.269
 20
22.688
 30
0.0
 11
173.269
 21
25.7886
 31
0.0
  0
LINE
  8
0
 62
     0
 10
173.269
 20
25.7886
 30
0.0
 11
174.068
 21
25.7886
 31
0.0
  0
LINE
  8
0
 62
     0
 10
174.068
 20
25.7886
 30
0.0
 11
174.068
 21
31.5874
 31
0.0
  0
LINE
  8
0
 62
     0
 10
174.068
 20
31.5874
 30
0.0
 11
173.269
 21
31.5874
 31
0.0
  0
LINE
  8
0
 62
     0
 10
173.269
 20
31.5874
 30
0.0
 11
173.269
 21
34.688
 31
0.0
  0
LINE
  8
0
 62
     0
 10
173.269
 20
34.688
 30
0.0
 11
174.068
 21
34.688
 31
0.0
  0
LINE
  8
0
 62
     0
 10
174.068
 20
34.688
 30
0.0
 11
174.068
 21
35.6884
 31
0.0
  0
LINE
  8
0
 62
     0
 10
174.068
 20
35.6884
 30
0.0
 11
188.069
 21
35.6884
 31
0.0
  0
LINE
  8
0
 62
     0
 10
188.069
 20
35.6884
 30
0.0
 11
188.069
 21
34.688
 31
0.0
  0
LINE
  8
0
 62
     0
 10
188.069
 20
34.688
 30
0.0
 11
188.868
 21
34.688
 31
0.0
  0
LINE
  8
0
 62
     0
 10
188.868
 20
34.688
 30
0.0
 11
188.868
 21
31.5874
 31
0.0
  0
LINE
  8
0
 62
     0
 10
188.868
 20
31.5874
 30
0.0
 11
188.069
 21
31.5874
 31
0.0
  0
LINE
  8
0
 62
     0
 10
188.069
 20
31.5874
 30
0.0
 11
188.069
 21
25.7886
 31
0.0
  0
LINE
  8
0
 62
     0
 10
188.069
 20
25.7886
 30
0.0
 11
188.868
 21
25.7886
 31
0.0
  0
LINE
  8
0
 62
     0
 10
188.868
 20
25.7886
 30
0.0
 11
188.868
 21
22.688
 31
0.0
  0
LINE
  8
0
 62
     0
 10
188.868
 20
22.688
 30
0.0
 11
188.069
 21
22.688
 31
0.0
  0
LINE
  8
0
 62
     0
 10
188.069
 20
3.63802
 30
0.0
 11
188.069
 21
2.63756
 31
0.0
  0
LINE
  8
0
 62
     0
 10
188.069
 20
2.63756
 30
0.0
 11
174.068
 21
2.63756
 31
0.0
  0
LINE
  8
0
 62
     0
 10
174.068
 20
2.63756
 30
0.0
 11
174.068
 21
3.63802
 31
0.0
  0
LINE
  8
0
 62
     0
 10
174.068
 20
3.63802
 30
0.0
 11
173.269
 21
3.63802
 31
0.0
  0
LINE
  8
0
 62
     0
 10
173.269
 20
3.63802
 30
0.0
 11
173.269
 21
6.73862
 31
0.0
  0
LINE
  8
0
 62
     0
 10
173.269
 20
6.73862
 30
0.0
 11
174.068
 21
6.73862
 31
0.0
  0
LINE
  8
0
 62
     0
 10
174.068
 20
6.73862
 30
0.0
 11
174.068
 21
12.5374
 31
0.0
  0
LINE
  8
0
 62
     0
 10
174.068
 20
12.5374
 30
0.0
 11
173.269
 21
12.5374
 31
0.0
  0
LINE
  8
0
 62
     0
 10
173.269
 20
12.5374
 30
0.0
 11
173.269
 21
15.638
 31
0.0
  0
LINE
  8
0
 62
     0
 10
173.269
 20
15.638
 30
0.0
 11
174.068
 21
15.638
 31
0.0
  0
LINE
  8
0
 62
     0
 10
174.068
 20
15.638
 30
0.0
 11
174.068
 21
16.6384
 31
0.0
  0
LINE
  8
0
 62
     0
 10
174.068
 20
16.6384
 30
0.0
 11
188.069
 21
16.6384
 31
0.0
  0
LINE
  8
0
 62
     0
 10
188.069
 20
16.6384
 30
0.0
 11
188.069
 21
15.638
 31
0.0
  0
LINE
  8
0
 62
     0
 10
188.069
 20
15.638
 30
0.0
 11
188.868
 21
15.638
 31
0.0
  0
LINE
  8
0
 62
     0
 10
188.868
 20
15.638
 30
0.0
 11
188.868
 21
12.5374
 31
0.0
  0
LINE
  8
0
 62
     0
 10
188.868
 20
12.5374
 30
0.0
 11
188.069
 21
12.5374
 31
0.0
  0
LINE
  8
0
 62
     0
 10
188.069
 20
12.5374
 30
0.0
 11
188.069
 21
6.73862
 31
0.0
  0
LINE
  8
0
 62
     0
 10
188.069
 20
6.73862
 30
0.0
 11
188.868
 21
6.73862
 31
0.0
  0
LINE
  8
0
 62
     0
 10
188.868
 20
6.73862
 30
0.0
 11
188.868
 21
3.63802
 31
0.0
  0
LINE
  8
0
 62
     0
 10
188.868
 20
3.63802
 30
0.0
 11
188.069
 21
3.63802
 31
0.0
  0
LINE
  8
0
 62
     0
 10
197.594
 20
41.7382
 30
0.0
 11
197.594
 21
40.7377
 31
0.0
  0
LINE
  8
0
 62
     0
 10
197.594
 20
40.7377
 30
0.0
 11
183.593
 21
40.7377
 31
0.0
  0
LINE
  8
0
 62
     0
 10
183.593
 20
40.7377
 30
0.0
 11
183.593
 21
41.7382
 31
0.0
  0
LINE
  8
0
 62
     0
 10
183.593
 20
41.7382
 30
0.0
 11
182.794
 21
41.7382
 31
0.0
  0
LINE
  8
0
 62
     0
 10
182.794
 20
41.7382
 30
0.0
 11
182.794
 21
44.8388
 31
0.0
  0
LINE
  8
0
 62
     0
 10
182.794
 20
44.8388
 30
0.0
 11
183.593
 21
44.8388
 31
0.0
  0
LINE
  8
0
 62
     0
 10
183.593
 20
44.8388
 30
0.0
 11
183.593
 21
50.6374
 31
0.0
  0
LINE
  8
0
 62
     0
 10
183.593
 20
50.6374
 30
0.0
 11
182.794
 21
50.6374
 31
0.0
  0
LINE
  8
0
 62
     0
 10
182.794
 20
50.6374
 30
0.0
 11
182.794
 21
53.7379
 31
0.0
  0
LINE
  8
0
 62
     0
 10
182.794
 20
53.7379
 30
0.0
 11
183.593
 21
53.7379
 31
0.0
  0
LINE
  8
0
 62
     0
 10
183.593
 20
53.7379
 30
0.0
 11
183.593
 21
54.7384
 31
0.0
  0
LINE
  8
0
 62
     0
 10
183.593
 20
54.7384
 30
0.0
 11
197.594
 21
54.7384
 31
0.0
  0
LINE
  8
0
 62
     0
 10
197.594
 20
54.7384
 30
0.0
 11
197.594
 21
53.7379
 31
0.0
  0
LINE
  8
0
 62
     0
 10
197.594
 20
53.7379
 30
0.0
 11
198.393
 21
53.7379
 31
0.0
  0
LINE
  8
0
 62
     0
 10
198.393
 20
53.7379
 30
0.0
 11
198.393
 21
50.6374
 31
0.0
  0
LINE
  8
0
 62
     0
 10
198.393
 20
50.6374
 30
0.0
 11
197.594
 21
50.6374
 31
0.0
  0
LINE
  8
0
 62
     0
 10
197.594
 20
50.6374
 30
0.0
 11
197.594
 21
44.8388
 31
0.0
  0
LINE
  8
0
 62
     0
 10
197.594
 20
44.8388
 30
0.0
 11
198.393
 21
44.8388
 31
0.0
  0
LINE
  8
0
 62
     0
 10
198.393
 20
44.8388
 30
0.0
 11
198.393
 21
41.7382
 31
0.0
  0
LINE
  8
0
 62
     0
 10
198.393
 20
41.7382
 30
0.0
 11
197.594
 21
41.7382
 31
0.0
  0
LINE
  8
0
 62
     0
 10
207.119
 20
60.7882
 30
0.0
 11
207.119
 21
59.7877
 31
0.0
  0
LINE
  8
0
 62
     0
 10
207.119
 20
59.7877
 30
0.0
 11
193.118
 21
59.7877
 31
0.0
  0
LINE
  8
0
 62
     0
 10
193.118
 20
59.7877
 30
0.0
 11
193.118
 21
60.7882
 31
0.0
  0
LINE
  8
0
 62
     0
 10
193.118
 20
60.7882
 30
0.0
 11
192.319
 21
60.7882
 31
0.0
  0
LINE
  8
0
 62
     0
 10
192.319
 20
60.7882
 30
0.0
 11
192.319
 21
63.8888
 31
0.0
  0
LINE
  8
0
 62
     0
 10
192.319
 20
63.8888
 30
0.0
 11
193.118
 21
63.8888
 31
0.0
  0
LINE
  8
0
 62
     0
 10
193.118
 20
63.8888
 30
0.0
 11
193.118
 21
69.6874
 31
0.0
  0
LINE
  8
0
 62
     0
 10
193.118
 20
69.6874
 30
0.0
 11
192.319
 21
69.6874
 31
0.0
  0
LINE
  8
0
 62
     0
 10
192.319
 20
69.6874
 30
0.0
 11
192.319
 21
72.7879
 31
0.0
  0
LINE
  8
0
 62
     0
 10
192.319
 20
72.7879
 30
0.0
 11
193.118
 21
72.7879
 31
0.0
  0
LINE
  8
0
 62
     0
 10
193.118
 20
72.7879
 30
0.0
 11
193.118
 21
73.7884
 31
0.0
  0
LINE
  8
0
 62
     0
 10
193.118
 20
73.7884
 30
0.0
 11
207.119
 21
73.7884
 31
0.0
  0
LINE
  8
0
 62
     0
 10
207.119
 20
73.7884
 30
0.0
 11
207.119
 21
72.7879
 31
0.0
  0
LINE
  8
0
 62
     0
 10
207.119
 20
72.7879
 30
0.0
 11
207.918
 21
72.7879
 31
0.0
  0
LINE
  8
0
 62
     0
 10
207.918
 20
72.7879
 30
0.0
 11
207.918
 21
69.6874
 31
0.0
  0
LINE
  8
0
 62
     0
 10
207.918
 20
69.6874
 30
0.0
 11
207.119
 21
69.6874
 31
0.0
  0
LINE
  8
0
 62
     0
 10
207.119
 20
69.6874
 30
0.0
 11
207.119
 21
63.8888
 31
0.0
  0
LINE
  8
0
 62
     0
 10
207.119
 20
63.8888
 30
0.0
 11
207.918
 21
63.8888
 31
0.0
  0
LINE
  8
0
 62
     0
 10
207.918
 20
63.8888
 30
0.0
 11
207.918
 21
60.7882
 31
0.0
  0
LINE
  8
0
 62
     0
 10
207.918
 20
60.7882
 30
0.0
 11
207.119
 21
60.7882
 31
0.0
  0
LINE
  8
0
 62
     0
 10
207.119
 20
22.688
 30
0.0
 11
207.119
 21
21.6876
 31
0.0
  0
LINE
  8
0
 62
     0
 10
207.119
 20
21.6876
 30
0.0
 11
193.118
 21
21.6876
 31
0.0
  0
LINE
  8
0
 62
     0
 10
193.118
 20
21.6876
 30
0.0
 11
193.118
 21
22.688
 31
0.0
  0
LINE
  8
0
 62
     0
 10
193.118
 20
22.688
 30
0.0
 11
192.319
 21
22.688
 31
0.0
  0
LINE
  8
0
 62
     0
 10
192.319
 20
22.688
 30
0.0
 11
192.319
 21
25.7886
 31
0.0
  0
LINE
  8
0
 62
     0
 10
192.319
 20
25.7886
 30
0.0
 11
193.118
 21
25.7886
 31
0.0
  0
LINE
  8
0
 62
     0
 10
193.118
 20
25.7886
 30
0.0
 11
193.118
 21
31.5874
 31
0.0
  0
LINE
  8
0
 62
     0
 10
193.118
 20
31.5874
 30
0.0
 11
192.319
 21
31.5874
 31
0.0
  0
LINE
  8
0
 62
     0
 10
192.319
 20
31.5874
 30
0.0
 11
192.319
 21
34.688
 31
0.0
  0
LINE
  8
0
 62
     0
 10
192.319
 20
34.688
 30
0.0
 11
193.118
 21
34.688
 31
0.0
  0
LINE
  8
0
 62
     0
 10
193.118
 20
34.688
 30
0.0
 11
193.118
 21
35.6884
 31
0.0
  0
LINE
  8
0
 62
     0
 10
193.118
 20
35.6884
 30
0.0
 11
207.119
 21
35.6884
 31
0.0
  0
LINE
  8
0
 62
     0
 10
207.119
 20
35.6884
 30
0.0
 11
207.119
 21
34.688
 31
0.0
  0
LINE
  8
0
 62
     0
 10
207.119
 20
34.688
 30
0.0
 11
207.918
 21
34.688
 31
0.0
  0
LINE
  8
0
 62
     0
 10
207.918
 20
34.688
 30
0.0
 11
207.918
 21
31.5874
 31
0.0
  0
LINE
  8
0
 62
     0
 10
207.918
 20
31.5874
 30
0.0
 11
207.119
 21
31.5874
 31
0.0
  0
LINE
  8
0
 62
     0
 10
207.119
 20
31.5874
 30
0.0
 11
207.119
 21
25.7886
 31
0.0
  0
LINE
  8
0
 62
     0
 10
207.119
 20
25.7886
 30
0.0
 11
207.918
 21
25.7886
 31
0.0
  0
LINE
  8
0
 62
     0
 10
207.918
 20
25.7886
 30
0.0
 11
207.918
 21
22.688
 31
0.0
  0
LINE
  8
0
 62
     0
 10
207.918
 20
22.688
 30
0.0
 11
207.119
 21
22.688
 31
0.0
  0
LINE
  8
0
 62
     0
 10
207.119
 20
3.63802
 30
0.0
 11
207.119
 21
2.63756
 31
0.0
  0
LINE
  8
0
 62
     0
 10
207.119
 20
2.63756
 30
0.0
 11
193.118
 21
2.63756
 31
0.0
  0
LINE
  8
0
 62
     0
 10
193.118
 20
2.63756
 30
0.0
 11
193.118
 21
3.63802
 31
0.0
  0
LINE
  8
0
 62
     0
 10
193.118
 20
3.63802
 30
0.0
 11
192.319
 21
3.63802
 31
0.0
  0
LINE
  8
0
 62
     0
 10
192.319
 20
3.63802
 30
0.0
 11
192.319
 21
6.73862
 31
0.0
  0
LINE
  8
0
 62
     0
 10
192.319
 20
6.73862
 30
0.0
 11
193.118
 21
6.73862
 31
0.0
  0
LINE
  8
0
 62
     0
 10
193.118
 20
6.73862
 30
0.0
 11
193.118
 21
12.5374
 31
0.0
  0
LINE
  8
0
 62
     0
 10
193.118
 20
12.5374
 30
0.0
 11
192.319
 21
12.5374
 31
0.0
  0
LINE
  8
0
 62
     0
 10
192.319
 20
12.5374
 30
0.0
 11
192.319
 21
15.638
 31
0.0
  0
LINE
  8
0
 62
     0
 10
192.319
 20
15.638
 30
0.0
 11
193.118
 21
15.638
 31
0.0
  0
LINE
  8
0
 62
     0
 10
193.118
 20
15.638
 30
0.0
 11
193.118
 21
16.6384
 31
0.0
  0
LINE
  8
0
 62
     0
 10
193.118
 20
16.6384
 30
0.0
 11
207.119
 21
16.6384
 31
0.0
  0
LINE
  8
0
 62
     0
 10
207.119
 20
16.6384
 30
0.0
 11
207.119
 21
15.638
 31
0.0
  0
LINE
  8
0
 62
     0
 10
207.119
 20
15.638
 30
0.0
 11
207.918
 21
15.638
 31
0.0
  0
LINE
  8
0
 62
     0
 10
207.918
 20
15.638
 30
0.0
 11
207.918
 21
12.5374
 31
0.0
  0
LINE
  8
0
 62
     0
 10
207.918
 20
12.5374
 30
0.0
 11
207.119
 21
12.5374
 31
0.0
  0
LINE
  8
0
 62
     0
 10
207.119
 20
12.5374
 30
0.0
 11
207.119
 21
6.73862
 31
0.0
  0
LINE
  8
0
 62
     0
 10
207.119
 20
6.73862
 30
0.0
 11
207.918
 21
6.73862
 31
0.0
  0
LINE
  8
0
 62
     0
 10
207.918
 20
6.73862
 30
0.0
 11
207.918
 21
3.63802
 31
0.0
  0
LINE
  8
0
 62
     0
 10
207.918
 20
3.63802
 30
0.0
 11
207.119
 21
3.63802
 31
0.0
  0
LINE
  8
0
 62
     0
 10
221.407
 20
41.7382
 30
0.0
 11
221.407
 21
40.7377
 31
0.0
  0
LINE
  8
0
 62
     0
 10
221.407
 20
40.7377
 30
0.0
 11
207.407
 21
40.7377
 31
0.0
  0
LINE
  8
0
 62
     0
 10
207.407
 20
40.7377
 30
0.0
 11
207.407
 21
41.7382
 31
0.0
  0
LINE
  8
0
 62
     0
 10
207.407
 20
41.7382
 30
0.0
 11
206.606
 21
41.7382
 31
0.0
  0
LINE
  8
0
 62
     0
 10
206.606
 20
41.7382
 30
0.0
 11
206.606
 21
44.8388
 31
0.0
  0
LINE
  8
0
 62
     0
 10
206.606
 20
44.8388
 30
0.0
 11
207.407
 21
44.8388
 31
0.0
  0
LINE
  8
0
 62
     0
 10
207.407
 20
44.8388
 30
0.0
 11
207.407
 21
50.6374
 31
0.0
  0
LINE
  8
0
 62
     0
 10
207.407
 20
50.6374
 30
0.0
 11
206.606
 21
50.6374
 31
0.0
  0
LINE
  8
0
 62
     0
 10
206.606
 20
50.6374
 30
0.0
 11
206.606
 21
53.7379
 31
0.0
  0
LINE
  8
0
 62
     0
 10
206.606
 20
53.7379
 30
0.0
 11
207.407
 21
53.7379
 31
0.0
  0
LINE
  8
0
 62
     0
 10
207.407
 20
53.7379
 30
0.0
 11
207.407
 21
54.7384
 31
0.0
  0
LINE
  8
0
 62
     0
 10
207.407
 20
54.7384
 30
0.0
 11
221.407
 21
54.7384
 31
0.0
  0
LINE
  8
0
 62
     0
 10
221.407
 20
54.7384
 30
0.0
 11
221.407
 21
53.7379
 31
0.0
  0
LINE
  8
0
 62
     0
 10
221.407
 20
53.7379
 30
0.0
 11
222.207
 21
53.7379
 31
0.0
  0
LINE
  8
0
 62
     0
 10
222.207
 20
53.7379
 30
0.0
 11
222.207
 21
50.6374
 31
0.0
  0
LINE
  8
0
 62
     0
 10
222.207
 20
50.6374
 30
0.0
 11
221.407
 21
50.6374
 31
0.0
  0
LINE
  8
0
 62
     0
 10
221.407
 20
50.6374
 30
0.0
 11
221.407
 21
44.8388
 31
0.0
  0
LINE
  8
0
 62
     0
 10
221.407
 20
44.8388
 30
0.0
 11
222.207
 21
44.8388
 31
0.0
  0
LINE
  8
0
 62
     0
 10
222.207
 20
44.8388
 30
0.0
 11
222.207
 21
41.7382
 31
0.0
  0
LINE
  8
0
 62
     0
 10
222.207
 20
41.7382
 30
0.0
 11
221.407
 21
41.7382
 31
0.0
  0
LINE
  8
0
 62
     0
 10
226.169
 20
60.7882
 30
0.0
 11
226.169
 21
59.7877
 31
0.0
  0
LINE
  8
0
 62
     0
 10
226.169
 20
59.7877
 30
0.0
 11
212.168
 21
59.7877
 31
0.0
  0
LINE
  8
0
 62
     0
 10
212.168
 20
59.7877
 30
0.0
 11
212.168
 21
60.7882
 31
0.0
  0
LINE
  8
0
 62
     0
 10
212.168
 20
60.7882
 30
0.0
 11
211.369
 21
60.7882
 31
0.0
  0
LINE
  8
0
 62
     0
 10
211.369
 20
60.7882
 30
0.0
 11
211.369
 21
63.8888
 31
0.0
  0
LINE
  8
0
 62
     0
 10
211.369
 20
63.8888
 30
0.0
 11
212.168
 21
63.8888
 31
0.0
  0
LINE
  8
0
 62
     0
 10
212.168
 20
63.8888
 30
0.0
 11
212.168
 21
69.6874
 31
0.0
  0
LINE
  8
0
 62
     0
 10
212.168
 20
69.6874
 30
0.0
 11
211.369
 21
69.6874
 31
0.0
  0
LINE
  8
0
 62
     0
 10
211.369
 20
69.6874
 30
0.0
 11
211.369
 21
72.7879
 31
0.0
  0
LINE
  8
0
 62
     0
 10
211.369
 20
72.7879
 30
0.0
 11
212.168
 21
72.7879
 31
0.0
  0
LINE
  8
0
 62
     0
 10
212.168
 20
72.7879
 30
0.0
 11
212.168
 21
73.7884
 31
0.0
  0
LINE
  8
0
 62
     0
 10
212.168
 20
73.7884
 30
0.0
 11
226.169
 21
73.7884
 31
0.0
  0
LINE
  8
0
 62
     0
 10
226.169
 20
73.7884
 30
0.0
 11
226.169
 21
72.7879
 31
0.0
  0
LINE
  8
0
 62
     0
 10
226.169
 20
72.7879
 30
0.0
 11
226.968
 21
72.7879
 31
0.0
  0
LINE
  8
0
 62
     0
 10
226.968
 20
72.7879
 30
0.0
 11
226.968
 21
69.6874
 31
0.0
  0
LINE
  8
0
 62
     0
 10
226.968
 20
69.6874
 30
0.0
 11
226.169
 21
69.6874
 31
0.0
  0
LINE
  8
0
 62
     0
 10
226.169
 20
69.6874
 30
0.0
 11
226.169
 21
63.8888
 31
0.0
  0
LINE
  8
0
 62
     0
 10
226.169
 20
63.8888
 30
0.0
 11
226.968
 21
63.8888
 31
0.0
  0
LINE
  8
0
 62
     0
 10
226.968
 20
63.8888
 30
0.0
 11
226.968
 21
60.7882
 31
0.0
  0
LINE
  8
0
 62
     0
 10
226.968
 20
60.7882
 30
0.0
 11
226.169
 21
60.7882
 31
0.0
  0
LINE
  8
0
 62
     0
 10
226.169
 20
22.688
 30
0.0
 11
226.169
 21
21.6876
 31
0.0
  0
LINE
  8
0
 62
     0
 10
226.169
 20
21.6876
 30
0.0
 11
212.168
 21
21.6876
 31
0.0
  0
LINE
  8
0
 62
     0
 10
212.168
 20
21.6876
 30
0.0
 11
212.168
 21
22.688
 31
0.0
  0
LINE
  8
0
 62
     0
 10
212.168
 20
22.688
 30
0.0
 11
211.369
 21
22.688
 31
0.0
  0
LINE
  8
0
 62
     0
 10
211.369
 20
22.688
 30
0.0
 11
211.369
 21
25.7886
 31
0.0
  0
LINE
  8
0
 62
     0
 10
211.369
 20
25.7886
 30
0.0
 11
212.168
 21
25.7886
 31
0.0
  0
LINE
  8
0
 62
     0
 10
212.168
 20
25.7886
 30
0.0
 11
212.168
 21
31.5874
 31
0.0
  0
LINE
  8
0
 62
     0
 10
212.168
 20
31.5874
 30
0.0
 11
211.369
 21
31.5874
 31
0.0
  0
LINE
  8
0
 62
     0
 10
211.369
 20
31.5874
 30
0.0
 11
211.369
 21
34.688
 31
0.0
  0
LINE
  8
0
 62
     0
 10
211.369
 20
34.688
 30
0.0
 11
212.168
 21
34.688
 31
0.0
  0
LINE
  8
0
 62
     0
 10
212.168
 20
34.688
 30
0.0
 11
212.168
 21
35.6884
 31
0.0
  0
LINE
  8
0
 62
     0
 10
212.168
 20
35.6884
 30
0.0
 11
226.169
 21
35.6884
 31
0.0
  0
LINE
  8
0
 62
     0
 10
226.169
 20
35.6884
 30
0.0
 11
226.169
 21
34.688
 31
0.0
  0
LINE
  8
0
 62
     0
 10
226.169
 20
34.688
 30
0.0
 11
226.968
 21
34.688
 31
0.0
  0
LINE
  8
0
 62
     0
 10
226.968
 20
34.688
 30
0.0
 11
226.968
 21
31.5874
 31
0.0
  0
LINE
  8
0
 62
     0
 10
226.968
 20
31.5874
 30
0.0
 11
226.169
 21
31.5874
 31
0.0
  0
LINE
  8
0
 62
     0
 10
226.169
 20
31.5874
 30
0.0
 11
226.169
 21
25.7886
 31
0.0
  0
LINE
  8
0
 62
     0
 10
226.169
 20
25.7886
 30
0.0
 11
226.968
 21
25.7886
 31
0.0
  0
LINE
  8
0
 62
     0
 10
226.968
 20
25.7886
 30
0.0
 11
226.968
 21
22.688
 31
0.0
  0
LINE
  8
0
 62
     0
 10
226.968
 20
22.688
 30
0.0
 11
226.169
 21
22.688
 31
0.0
  0
LINE
  8
0
 62
     0
 10
226.169
 20
3.63802
 30
0.0
 11
226.169
 21
2.63756
 31
0.0
  0
LINE
  8
0
 62
     0
 10
226.169
 20
2.63756
 30
0.0
 11
212.168
 21
2.63756
 31
0.0
  0
LINE
  8
0
 62
     0
 10
212.168
 20
2.63756
 30
0.0
 11
212.168
 21
3.63802
 31
0.0
  0
LINE
  8
0
 62
     0
 10
212.168
 20
3.63802
 30
0.0
 11
211.369
 21
3.63802
 31
0.0
  0
LINE
  8
0
 62
     0
 10
211.369
 20
3.63802
 30
0.0
 11
211.369
 21
6.73862
 31
0.0
  0
LINE
  8
0
 62
     0
 10
211.369
 20
6.73862
 30
0.0
 11
212.168
 21
6.73862
 31
0.0
  0
LINE
  8
0
 62
     0
 10
212.168
 20
6.73862
 30
0.0
 11
212.168
 21
12.5374
 31
0.0
  0
LINE
  8
0
 62
     0
 10
212.168
 20
12.5374
 30
0.0
 11
211.369
 21
12.5374
 31
0.0
  0
LINE
  8
0
 62
     0
 10
211.369
 20
12.5374
 30
0.0
 11
211.369
 21
15.638
 31
0.0
  0
LINE
  8
0
 62
     0
 10
211.369
 20
15.638
 30
0.0
 11
212.168
 21
15.638
 31
0.0
  0
LINE
  8
0
 62
     0
 10
212.168
 20
15.638
 30
0.0
 11
212.168
 21
16.6384
 31
0.0
  0
LINE
  8
0
 62
     0
 10
212.168
 20
16.6384
 30
0.0
 11
226.169
 21
16.6384
 31
0.0
  0
LINE
  8
0
 62
     0
 10
226.169
 20
16.6384
 30
0.0
 11
226.169
 21
15.638
 31
0.0
  0
LINE
  8
0
 62
     0
 10
226.169
 20
15.638
 30
0.0
 11
226.968
 21
15.638
 31
0.0
  0
LINE
  8
0
 62
     0
 10
226.968
 20
15.638
 30
0.0
 11
226.968
 21
12.5374
 31
0.0
  0
LINE
  8
0
 62
     0
 10
226.968
 20
12.5374
 30
0.0
 11
226.169
 21
12.5374
 31
0.0
  0
LINE
  8
0
 62
     0
 10
226.169
 20
12.5374
 30
0.0
 11
226.169
 21
6.73862
 31
0.0
  0
LINE
  8
0
 62
     0
 10
226.169
 20
6.73862
 30
0.0
 11
226.968
 21
6.73862
 31
0.0
  0
LINE
  8
0
 62
     0
 10
226.968
 20
6.73862
 30
0.0
 11
226.968
 21
3.63802
 31
0.0
  0
LINE
  8
0
 62
     0
 10
226.968
 20
3.63802
 30
0.0
 11
226.169
 21
3.63802
 31
0.0
  0
ENDSEC
  0
EOF
