<?xml version="1.0"?>
<!-- Generated by SVGo -->
<svg width="242.601mm" height="90.201mm"
     viewBox="0.000 0.000 242.601 90.201"
     xmlns="http://www.w3.org/2000/svg" 
     xmlns:xlink="http://www.w3.org/1999/xlink">
<polygon points="235.601,5.000 235.757,5.006 235.913,5.024 236.067,5.055 236.219,5.097 236.366,5.152 236.508,5.217 236.645,5.294 236.776,5.381 236.899,5.479 237.015,5.585 237.121,5.701 237.219,5.824 237.306,5.955 237.383,6.092 237.448,6.234 237.503,6.381 237.545,6.533 237.576,6.687 237.594,6.843 237.601,7.000 237.601,83.201 237.594,83.357 237.576,83.513 237.545,83.667 237.503,83.819 237.448,83.966 237.383,84.108 237.306,84.245 237.219,84.376 237.121,84.499 237.015,84.615 236.899,84.721 236.776,84.819 236.645,84.906 236.508,84.983 236.366,85.048 236.219,85.103 236.067,85.145 235.913,85.176 235.757,85.194 235.601,85.200 7.000,85.201 6.843,85.194 6.687,85.176 6.533,85.145 6.381,85.103 6.234,85.048 6.092,84.983 5.955,84.906 5.824,84.819 5.701,84.721 5.585,84.615 5.479,84.499 5.381,84.376 5.294,84.245 5.217,84.108 5.152,83.966 5.097,83.819 5.055,83.667 5.024,83.513 5.006,83.357 4.999,83.201 5.000,7.000 5.006,6.843 5.024,6.687 5.055,6.533 5.097,6.381 5.152,6.234 5.217,6.092 5.294,5.955 5.381,5.824 5.479,5.701 5.585,5.585 5.701,5.479 5.824,5.381 5.955,5.294 6.092,5.217 6.234,5.152 6.381,5.097 6.533,5.055 6.687,5.024 6.843,5.006 7.000,4.999" style="fill:none;stroke-width:0.2;stroke:black"/>
<polygon points="6.998,6.998 6.998,26.051 6.999,26.051 6.999,45.099 6.998,45.099 6.998,64.150 6.999,64.150 6.999,83.201 235.601,83.201 235.601,6.998" style="fill:none;stroke-width:0.2;stroke:black"/>
</svg>
