<?xml version="1.0"?>
<!-- Generated by SVGo -->
<svg width="248.601mm" height="96.201mm"
     viewBox="0.000 0.000 248.601 96.201"
     xmlns="http://www.w3.org/2000/svg" 
     xmlns:xlink="http://www.w3.org/1999/xlink">
<polygon points="241.601,5.000 241.758,5.006 241.914,5.025 242.068,5.055 242.219,5.098 242.366,5.152 242.509,5.218 242.646,5.295 242.777,5.382 242.900,5.479 243.015,5.586 243.122,5.701 243.219,5.824 243.306,5.955 243.383,6.092 243.449,6.235 243.503,6.382 243.546,6.533 243.576,6.687 243.595,6.843 243.601,7.000 243.601,89.201 243.595,89.358 243.576,89.514 243.546,89.668 243.503,89.819 243.449,89.966 243.383,90.109 243.306,90.246 243.219,90.377 243.122,90.500 243.015,90.615 242.900,90.722 242.777,90.819 242.646,90.906 242.509,90.983 242.366,91.049 242.219,91.103 242.068,91.146 241.914,91.176 241.758,91.195 241.601,91.201 7.000,91.201 6.843,91.195 6.687,91.176 6.533,91.146 6.382,91.103 6.235,91.049 6.092,90.983 5.955,90.906 5.824,90.819 5.701,90.722 5.586,90.615 5.479,90.500 5.382,90.377 5.295,90.246 5.218,90.109 5.152,89.966 5.098,89.819 5.055,89.668 5.025,89.514 5.006,89.358 5.000,89.201 5.000,7.000 5.006,6.843 5.025,6.687 5.055,6.533 5.098,6.382 5.152,6.235 5.218,6.092 5.295,5.955 5.382,5.824 5.479,5.701 5.586,5.586 5.701,5.479 5.824,5.382 5.955,5.295 6.092,5.218 6.235,5.152 6.382,5.098 6.533,5.055 6.687,5.025 6.843,5.006 7.000,5.000" style="fill:none;stroke-width:0.2;stroke:black"/>
</svg>
