<?xml version="1.0"?>
<!-- Generated by SVGo -->
<svg width="248.601mm" height="96.201mm"
     viewBox="0.000 0.000 248.601 96.201"
     xmlns="http://www.w3.org/2000/svg" 
     xmlns:xlink="http://www.w3.org/1999/xlink">
<polygon points="241.601,5.000 241.757,5.006 241.913,5.024 242.067,5.055 242.219,5.097 242.366,5.152 242.508,5.217 242.645,5.294 242.776,5.381 242.899,5.479 243.015,5.585 243.121,5.701 243.219,5.824 243.306,5.955 243.383,6.092 243.448,6.234 243.503,6.381 243.545,6.533 243.576,6.687 243.594,6.843 243.601,7.000 243.601,89.201 243.594,89.357 243.576,89.513 243.545,89.667 243.503,89.819 243.448,89.966 243.383,90.108 243.306,90.245 243.219,90.376 243.121,90.499 243.015,90.615 242.899,90.721 242.776,90.819 242.645,90.906 242.508,90.983 242.366,91.048 242.219,91.103 242.067,91.145 241.913,91.176 241.757,91.194 241.601,91.200 7.000,91.201 6.843,91.194 6.687,91.176 6.533,91.145 6.381,91.103 6.234,91.048 6.092,90.983 5.955,90.906 5.824,90.819 5.701,90.721 5.585,90.615 5.479,90.499 5.381,90.376 5.294,90.245 5.217,90.108 5.152,89.966 5.097,89.819 5.055,89.667 5.024,89.513 5.006,89.357 4.999,89.201 5.000,7.000 5.006,6.843 5.024,6.687 5.055,6.533 5.097,6.381 5.152,6.234 5.217,6.092 5.294,5.955 5.381,5.824 5.479,5.701 5.585,5.585 5.701,5.479 5.824,5.381 5.955,5.294 6.092,5.217 6.234,5.152 6.381,5.097 6.533,5.055 6.687,5.024 6.843,5.006 7.000,4.999" style="fill:none;stroke-width:0.2;stroke:black"/>
<polygon points="110.156,69.675 110.156,74.375 108.581,74.375 108.581,71.145 106.906,71.145 106.906,70.225 103.606,70.225 103.606,71.145 101.931,71.145 101.931,74.375 101.056,74.375 101.056,77.175 101.931,77.175 101.931,83.445 103.606,83.445 103.606,84.425 106.906,84.425 106.906,83.445 108.581,83.445 108.581,78.975 110.156,78.975 110.156,83.675 124.156,83.675 124.156,78.975 125.731,78.975 125.731,83.445 127.406,83.445 127.406,84.425 130.705,84.425 130.705,83.445 132.381,83.445 132.381,77.175 133.256,77.175 133.256,74.375 132.381,74.375 132.381,71.145 130.705,71.145 130.705,70.225 127.406,70.225 127.406,71.145 125.731,71.145 125.731,74.375 124.156,74.375 124.156,69.675" style="fill:none;stroke-width:0.2;stroke:black"/>
<polygon points="17.287,69.675 17.287,83.675 31.287,83.675 31.287,69.675" style="fill:none;stroke-width:0.2;stroke:black"/>
<polygon points="45.862,69.675 45.862,83.675 59.862,83.675 59.862,69.675" style="fill:none;stroke-width:0.2;stroke:black"/>
<polygon points="72.056,69.675 72.056,83.675 86.056,83.675 86.056,69.675" style="fill:none;stroke-width:0.2;stroke:black"/>
<polygon points="145.875,69.675 145.875,83.675 159.875,83.675 159.875,69.675" style="fill:none;stroke-width:0.2;stroke:black"/>
<polygon points="164.925,69.675 164.925,83.675 178.925,83.675 178.925,69.675" style="fill:none;stroke-width:0.2;stroke:black"/>
<polygon points="183.975,69.675 183.975,83.675 197.975,83.675 197.975,69.675" style="fill:none;stroke-width:0.2;stroke:black"/>
<polygon points="203.025,69.675 203.025,83.675 217.025,83.675 217.025,69.675" style="fill:none;stroke-width:0.2;stroke:black"/>
<polygon points="222.075,69.675 222.075,83.675 236.075,83.675 236.075,69.675" style="fill:none;stroke-width:0.2;stroke:black"/>
<polygon points="12.524,50.625 12.524,64.625 26.525,64.625 26.525,50.625" style="fill:none;stroke-width:0.2;stroke:black"/>
<polygon points="31.575,50.625 31.575,64.625 45.575,64.625 45.575,50.625" style="fill:none;stroke-width:0.2;stroke:black"/>
<polygon points="50.625,50.625 50.625,64.625 64.625,64.625 64.625,50.625" style="fill:none;stroke-width:0.2;stroke:black"/>
<polygon points="69.675,50.625 69.675,64.625 83.675,64.625 83.675,50.625" style="fill:none;stroke-width:0.2;stroke:black"/>
<polygon points="88.725,50.625 88.725,64.625 102.725,64.625 102.725,50.625" style="fill:none;stroke-width:0.2;stroke:black"/>
<polygon points="107.774,50.625 107.774,64.625 121.774,64.625 121.774,50.625" style="fill:none;stroke-width:0.2;stroke:black"/>
<polygon points="126.824,50.625 126.824,64.625 140.825,64.625 140.825,50.625" style="fill:none;stroke-width:0.2;stroke:black"/>
<polygon points="145.875,50.625 145.875,64.625 159.875,64.625 159.875,50.625" style="fill:none;stroke-width:0.2;stroke:black"/>
<polygon points="164.925,50.625 164.925,64.625 178.925,64.625 178.925,50.625" style="fill:none;stroke-width:0.2;stroke:black"/>
<polygon points="183.975,50.625 183.975,64.625 197.975,64.625 197.975,50.625" style="fill:none;stroke-width:0.2;stroke:black"/>
<polygon points="203.025,50.625 203.025,64.625 217.025,64.625 217.025,50.625" style="fill:none;stroke-width:0.2;stroke:black"/>
<polygon points="222.075,50.625 222.075,64.625 236.075,64.625 236.075,50.625" style="fill:none;stroke-width:0.2;stroke:black"/>
<polygon points="17.287,31.575 17.287,45.575 31.287,45.575 31.287,31.575" style="fill:none;stroke-width:0.2;stroke:black"/>
<polygon points="41.100,31.575 41.100,45.575 55.100,45.575 55.100,31.575" style="fill:none;stroke-width:0.2;stroke:black"/>
<polygon points="60.150,31.575 60.150,45.575 74.150,45.575 74.150,31.575" style="fill:none;stroke-width:0.2;stroke:black"/>
<polygon points="79.200,31.575 79.200,45.575 93.200,45.575 93.200,31.575" style="fill:none;stroke-width:0.2;stroke:black"/>
<polygon points="98.250,31.575 98.250,45.575 112.250,45.575 112.250,31.575" style="fill:none;stroke-width:0.2;stroke:black"/>
<polygon points="117.300,31.575 117.300,45.575 131.300,45.575 131.300,31.575" style="fill:none;stroke-width:0.2;stroke:black"/>
<polygon points="136.350,31.575 136.350,45.575 150.350,45.575 150.350,31.575" style="fill:none;stroke-width:0.2;stroke:black"/>
<polygon points="155.400,31.575 155.400,45.575 169.400,45.575 169.400,31.575" style="fill:none;stroke-width:0.2;stroke:black"/>
<polygon points="174.450,31.575 174.450,45.575 188.450,45.575 188.450,31.575" style="fill:none;stroke-width:0.2;stroke:black"/>
<polygon points="193.500,31.575 193.500,45.575 207.500,45.575 207.500,31.575" style="fill:none;stroke-width:0.2;stroke:black"/>
<polygon points="217.312,31.575 217.312,45.575 231.312,45.575 231.312,31.575" style="fill:none;stroke-width:0.2;stroke:black"/>
<polygon points="12.524,12.524 12.524,26.525 26.525,26.525 26.525,12.524" style="fill:none;stroke-width:0.2;stroke:black"/>
<polygon points="31.575,12.524 31.575,26.525 45.575,26.525 45.575,12.524" style="fill:none;stroke-width:0.2;stroke:black"/>
<polygon points="50.625,12.524 50.625,26.525 64.625,26.525 64.625,12.524" style="fill:none;stroke-width:0.2;stroke:black"/>
<polygon points="69.675,12.524 69.675,26.525 83.675,26.525 83.675,12.524" style="fill:none;stroke-width:0.2;stroke:black"/>
<polygon points="88.725,12.524 88.725,26.525 102.725,26.525 102.725,12.524" style="fill:none;stroke-width:0.2;stroke:black"/>
<polygon points="107.774,12.524 107.774,26.525 121.774,26.525 121.774,12.524" style="fill:none;stroke-width:0.2;stroke:black"/>
<polygon points="126.824,12.524 126.824,26.525 140.825,26.525 140.825,12.524" style="fill:none;stroke-width:0.2;stroke:black"/>
<polygon points="145.875,12.524 145.875,26.525 159.875,26.525 159.875,12.524" style="fill:none;stroke-width:0.2;stroke:black"/>
<polygon points="164.925,12.524 164.925,26.525 178.925,26.525 178.925,12.524" style="fill:none;stroke-width:0.2;stroke:black"/>
<polygon points="183.975,12.524 183.975,26.525 197.975,26.525 197.975,12.524" style="fill:none;stroke-width:0.2;stroke:black"/>
<polygon points="203.025,12.524 203.025,26.525 217.025,26.525 217.025,12.524" style="fill:none;stroke-width:0.2;stroke:black"/>
<polygon points="222.075,12.524 222.075,26.525 236.075,26.525 236.075,12.524" style="fill:none;stroke-width:0.2;stroke:black"/>
</svg>
