<?xml version="1.0"?>
<!-- Generated by SVGo -->
<svg width="248.601mm" height="96.201mm"
     viewBox="0.000 0.000 248.601 96.201"
     xmlns="http://www.w3.org/2000/svg" 
     xmlns:xlink="http://www.w3.org/1999/xlink">
<polygon points="241.601,5.000 241.757,5.006 241.913,5.024 242.067,5.055 242.219,5.097 242.366,5.152 242.508,5.217 242.645,5.294 242.776,5.381 242.899,5.479 243.015,5.585 243.121,5.701 243.219,5.824 243.306,5.955 243.383,6.092 243.448,6.234 243.503,6.381 243.545,6.533 243.576,6.687 243.594,6.843 243.601,7.000 243.601,89.201 243.594,89.357 243.576,89.513 243.545,89.667 243.503,89.819 243.448,89.966 243.383,90.108 243.306,90.245 243.219,90.376 243.121,90.499 243.015,90.615 242.899,90.721 242.776,90.819 242.645,90.906 242.508,90.983 242.366,91.048 242.219,91.103 242.067,91.145 241.913,91.176 241.757,91.194 241.601,91.200 7.000,91.201 6.843,91.194 6.687,91.176 6.533,91.145 6.381,91.103 6.234,91.048 6.092,90.983 5.955,90.906 5.824,90.819 5.701,90.721 5.585,90.615 5.479,90.499 5.381,90.376 5.294,90.245 5.217,90.108 5.152,89.966 5.097,89.819 5.055,89.667 5.024,89.513 5.006,89.357 4.999,89.201 5.000,7.000 5.006,6.843 5.024,6.687 5.055,6.533 5.097,6.381 5.152,6.234 5.217,6.092 5.294,5.955 5.381,5.824 5.479,5.701 5.585,5.585 5.701,5.479 5.824,5.381 5.955,5.294 6.092,5.217 6.234,5.152 6.381,5.097 6.533,5.055 6.687,5.024 6.843,5.006 7.000,4.999" style="fill:none;stroke-width:0.2;stroke:black"/>
<polygon points="9.998,9.998 9.998,29.051 9.999,29.051 9.999,48.099 9.998,48.099 9.998,67.151 9.999,67.151 9.999,86.201 238.601,86.201 238.601,9.998" style="fill:none;stroke-width:0.2;stroke:black"/>
</svg>
